<svg width="225" height="107" viewBox="0 0 225 107" fill="none" xmlns="http://www.w3.org/2000/svg">
<path d="M30.3345 77.7809L20 69.6464V20.1958C20 20.1958 48.2838 19.7553 56.5203 20.1958C64.7568 20.6363 72.2162 28.9742 72.2162 28.9742L65.1453 36.0241L62.9696 34.3972C62.1199 33.7619 60.25 32.7704 60.25 32.7704C60.25 32.7704 58.9475 32.0589 58.0743 31.6858C56.8395 31.1581 56.2389 30.8405 54.8108 30.6011C53.3827 30.3617 30.5032 30.6011 30.5032 30.6011L30.3345 77.7809Z" fill="#022E58" stroke="#022E58" stroke-width="2"/>
<path d="M41.2128 45.7855H78.7432V51.7508C78.7432 51.7508 78.6073 54.7573 78.1993 56.6314C77.7719 58.5948 77.3426 59.6575 76.5676 61.5121C75.8368 63.2606 75.3826 64.2342 74.3919 65.8505C73.2843 67.6576 72.5396 68.606 71.1284 70.1889C70.1305 71.3081 69.5503 71.9271 68.4088 72.9003C66.6625 74.3891 65.5173 75.0334 63.5135 76.1541C62.2708 76.8492 61.5676 77.2401 60.25 77.781C59.0078 78.291 58.293 78.5537 56.9865 78.8656C55.321 79.2632 52.6351 79.4079 52.6351 79.4079L50.4595 81.5771L46.652 84.8309L43.9324 87H41.2128V73.9849V67.4774C41.2128 67.4774 43.8006 68.6771 45.5642 69.1043C47.4333 69.557 50.4595 69.6466 50.4595 69.6466C50.4595 69.6466 51.7916 69.7485 52.6351 69.6466C53.5046 69.5415 53.9751 69.3654 54.8108 69.1043C55.9023 68.7632 56.4887 68.4909 57.5304 68.0197C58.3955 67.6284 58.8955 67.4289 59.7061 66.9351C60.6123 66.3829 61.0933 66.0176 61.8817 65.3082C62.6702 64.5988 62.3323 64.8589 62.9696 64.2236C63.6068 63.5883 64.0069 63.272 64.6013 62.5967C65.3019 61.8008 66.2331 60.4275 66.2331 60.4275L66.777 59.3429C66.777 59.3429 67.1338 58.6936 67.3209 58.2583C67.5855 57.6428 67.8649 56.6314 67.8649 56.6314L41.2128 56.9068V45.7855Z" fill="#33B5E5" stroke="#33B5E5"/>
<mask id="path-3-outside-1_37_29" maskUnits="userSpaceOnUse" x="89" y="24" width="112" height="50" fill="black">
<rect fill="white" x="89" y="24" width="112" height="50"/>
<path d="M90.321 43V25.5455H97.5312C98.8381 25.5455 99.9659 25.8011 100.915 26.3125C101.869 26.8182 102.605 27.5256 103.122 28.4347C103.639 29.3381 103.898 30.3892 103.898 31.5881C103.898 32.7926 103.634 33.8466 103.105 34.75C102.582 35.6477 101.835 36.3437 100.864 36.8381C99.892 37.3324 98.7386 37.5795 97.4034 37.5795H92.9545V34.2557H96.6193C97.2557 34.2557 97.7869 34.1449 98.2131 33.9233C98.6449 33.7017 98.9716 33.392 99.1932 32.9943C99.4148 32.5909 99.5256 32.1222 99.5256 31.5881C99.5256 31.0483 99.4148 30.5824 99.1932 30.1903C98.9716 29.7926 98.6449 29.4858 98.2131 29.2699C97.7813 29.054 97.25 28.946 96.6193 28.946H94.5398V43H90.321ZM127.608 34.2727C127.608 36.1932 127.239 37.821 126.5 39.1562C125.761 40.4915 124.761 41.5057 123.5 42.1989C122.244 42.892 120.835 43.2386 119.273 43.2386C117.705 43.2386 116.293 42.8892 115.037 42.1903C113.781 41.4915 112.784 40.4773 112.045 39.1477C111.312 37.8125 110.946 36.1875 110.946 34.2727C110.946 32.3523 111.312 30.7244 112.045 29.3892C112.784 28.054 113.781 27.0398 115.037 26.3466C116.293 25.6534 117.705 25.3068 119.273 25.3068C120.835 25.3068 122.244 25.6534 123.5 26.3466C124.761 27.0398 125.761 28.054 126.5 29.3892C127.239 30.7244 127.608 32.3523 127.608 34.2727ZM123.295 34.2727C123.295 33.1364 123.134 32.1761 122.81 31.392C122.491 30.608 122.031 30.0142 121.429 29.6108C120.832 29.2074 120.114 29.0057 119.273 29.0057C118.438 29.0057 117.719 29.2074 117.116 29.6108C116.514 30.0142 116.051 30.608 115.727 31.392C115.409 32.1761 115.25 33.1364 115.25 34.2727C115.25 35.4091 115.409 36.3693 115.727 37.1534C116.051 37.9375 116.514 38.5312 117.116 38.9347C117.719 39.3381 118.438 39.5398 119.273 39.5398C120.114 39.5398 120.832 39.3381 121.429 38.9347C122.031 38.5312 122.491 37.9375 122.81 37.1534C123.134 36.3693 123.295 35.4091 123.295 34.2727ZM135.227 43V25.5455H139.446V32.9261H139.676L145.446 25.5455H150.415L144.227 33.3352L150.526 43H145.48L141.134 36.1392L139.446 38.2699V43H135.227ZM156.366 25.5455H161.079L164.769 32.8494H164.923L168.613 25.5455H173.326L166.942 37.1705V43H162.749V37.1705L156.366 25.5455ZM103.045 60C102.858 59.4261 102.611 58.9119 102.304 58.4574C102.003 57.9972 101.642 57.6051 101.222 57.2812C100.807 56.9574 100.335 56.7102 99.8068 56.5398C99.2784 56.3693 98.6989 56.2841 98.0682 56.2841C97.0341 56.2841 96.0938 56.5511 95.2472 57.0852C94.4006 57.6193 93.7273 58.4062 93.2273 59.446C92.7273 60.4858 92.4773 61.7614 92.4773 63.2727C92.4773 64.7841 92.7301 66.0597 93.2358 67.0994C93.7415 68.1392 94.4261 68.9261 95.2898 69.4602C96.1534 69.9943 97.125 70.2614 98.2045 70.2614C99.2045 70.2614 100.085 70.0483 100.847 69.6222C101.614 69.1903 102.21 68.5824 102.636 67.7983C103.068 67.0085 103.284 66.0795 103.284 65.0114L103.932 65.1477H98.6818V63.2727H105.33V65.1477C105.33 66.5852 105.023 67.8352 104.409 68.8977C103.801 69.9602 102.96 70.7841 101.886 71.3693C100.818 71.9489 99.5909 72.2386 98.2045 72.2386C96.6591 72.2386 95.3011 71.875 94.1307 71.1477C92.9659 70.4205 92.0568 69.3864 91.4034 68.0455C90.7557 66.7045 90.4318 65.1136 90.4318 63.2727C90.4318 61.892 90.6165 60.6506 90.9858 59.5483C91.3608 58.4403 91.8892 57.4972 92.571 56.7188C93.2528 55.9403 94.0597 55.3438 94.9915 54.929C95.9233 54.5142 96.9489 54.3068 98.0682 54.3068C98.9886 54.3068 99.8466 54.446 100.642 54.7244C101.443 54.9972 102.156 55.3864 102.781 55.892C103.412 56.392 103.938 56.9915 104.358 57.6903C104.778 58.3835 105.068 59.1534 105.227 60H103.045ZM115.7 72V54.5455H121.597C122.961 54.5455 124.08 54.7784 124.955 55.2443C125.83 55.7045 126.478 56.3381 126.898 57.1449C127.319 57.9517 127.529 58.8693 127.529 59.8977C127.529 60.9261 127.319 61.8381 126.898 62.6335C126.478 63.429 125.833 64.054 124.964 64.5085C124.094 64.9574 122.984 65.1818 121.631 65.1818H116.859V63.2727H121.563C122.495 63.2727 123.245 63.1364 123.813 62.8636C124.387 62.5909 124.802 62.2045 125.058 61.7045C125.319 61.1989 125.45 60.5966 125.45 59.8977C125.45 59.1989 125.319 58.5881 125.058 58.0653C124.796 57.5426 124.379 57.1392 123.805 56.8551C123.231 56.5653 122.472 56.4205 121.529 56.4205H117.813V72H115.7ZM123.915 64.1591L128.211 72H125.756L121.529 64.1591H123.915ZM152.528 63.2727C152.528 65.1136 152.196 66.7045 151.531 68.0455C150.866 69.3864 149.955 70.4205 148.795 71.1477C147.636 71.875 146.313 72.2386 144.824 72.2386C143.335 72.2386 142.011 71.875 140.852 71.1477C139.693 70.4205 138.781 69.3864 138.116 68.0455C137.452 66.7045 137.119 65.1136 137.119 63.2727C137.119 61.4318 137.452 59.8409 138.116 58.5C138.781 57.1591 139.693 56.125 140.852 55.3977C142.011 54.6705 143.335 54.3068 144.824 54.3068C146.313 54.3068 147.636 54.6705 148.795 55.3977C149.955 56.125 150.866 57.1591 151.531 58.5C152.196 59.8409 152.528 61.4318 152.528 63.2727ZM150.483 63.2727C150.483 61.7614 150.23 60.4858 149.724 59.446C149.224 58.4062 148.545 57.6193 147.688 57.0852C146.835 56.5511 145.881 56.2841 144.824 56.2841C143.767 56.2841 142.81 56.5511 141.952 57.0852C141.099 57.6193 140.42 58.4062 139.915 59.446C139.415 60.4858 139.165 61.7614 139.165 63.2727C139.165 64.7841 139.415 66.0597 139.915 67.0994C140.42 68.1392 141.099 68.9261 141.952 69.4602C142.81 69.9943 143.767 70.2614 144.824 70.2614C145.881 70.2614 146.835 69.9943 147.688 69.4602C148.545 68.9261 149.224 68.1392 149.724 67.0994C150.23 66.0597 150.483 64.7841 150.483 63.2727ZM174.287 54.5455H176.401V66.1023C176.401 67.2955 176.119 68.3608 175.557 69.2983C175 70.2301 174.213 70.9659 173.196 71.5057C172.179 72.0398 170.986 72.3068 169.616 72.3068C168.247 72.3068 167.054 72.0398 166.037 71.5057C165.02 70.9659 164.23 70.2301 163.668 69.2983C163.111 68.3608 162.832 67.2955 162.832 66.1023V54.5455H164.946V65.9318C164.946 66.7841 165.134 67.5426 165.509 68.2074C165.884 68.8665 166.418 69.3864 167.111 69.767C167.81 70.142 168.645 70.3295 169.616 70.3295C170.588 70.3295 171.423 70.142 172.122 69.767C172.821 69.3864 173.355 68.8665 173.724 68.2074C174.099 67.5426 174.287 66.7841 174.287 65.9318V54.5455ZM187.371 72V54.5455H193.269C194.638 54.5455 195.758 54.7926 196.627 55.2869C197.502 55.7756 198.15 56.4375 198.57 57.2727C198.991 58.108 199.201 59.0398 199.201 60.0682C199.201 61.0966 198.991 62.0312 198.57 62.8722C198.156 63.7131 197.513 64.3835 196.644 64.8835C195.775 65.3778 194.661 65.625 193.303 65.625H189.076V63.75H193.235C194.173 63.75 194.925 63.5881 195.494 63.2642C196.062 62.9403 196.474 62.5028 196.729 61.9517C196.991 61.3949 197.121 60.767 197.121 60.0682C197.121 59.3693 196.991 58.7443 196.729 58.1932C196.474 57.642 196.059 57.2102 195.485 56.8977C194.911 56.5795 194.15 56.4205 193.201 56.4205H189.485V72H187.371Z"/>
</mask>
<path d="M90.321 43V25.5455H97.5312C98.8381 25.5455 99.9659 25.8011 100.915 26.3125C101.869 26.8182 102.605 27.5256 103.122 28.4347C103.639 29.3381 103.898 30.3892 103.898 31.5881C103.898 32.7926 103.634 33.8466 103.105 34.75C102.582 35.6477 101.835 36.3437 100.864 36.8381C99.892 37.3324 98.7386 37.5795 97.4034 37.5795H92.9545V34.2557H96.6193C97.2557 34.2557 97.7869 34.1449 98.2131 33.9233C98.6449 33.7017 98.9716 33.392 99.1932 32.9943C99.4148 32.5909 99.5256 32.1222 99.5256 31.5881C99.5256 31.0483 99.4148 30.5824 99.1932 30.1903C98.9716 29.7926 98.6449 29.4858 98.2131 29.2699C97.7813 29.054 97.25 28.946 96.6193 28.946H94.5398V43H90.321ZM127.608 34.2727C127.608 36.1932 127.239 37.821 126.5 39.1562C125.761 40.4915 124.761 41.5057 123.5 42.1989C122.244 42.892 120.835 43.2386 119.273 43.2386C117.705 43.2386 116.293 42.8892 115.037 42.1903C113.781 41.4915 112.784 40.4773 112.045 39.1477C111.312 37.8125 110.946 36.1875 110.946 34.2727C110.946 32.3523 111.312 30.7244 112.045 29.3892C112.784 28.054 113.781 27.0398 115.037 26.3466C116.293 25.6534 117.705 25.3068 119.273 25.3068C120.835 25.3068 122.244 25.6534 123.5 26.3466C124.761 27.0398 125.761 28.054 126.5 29.3892C127.239 30.7244 127.608 32.3523 127.608 34.2727ZM123.295 34.2727C123.295 33.1364 123.134 32.1761 122.81 31.392C122.491 30.608 122.031 30.0142 121.429 29.6108C120.832 29.2074 120.114 29.0057 119.273 29.0057C118.438 29.0057 117.719 29.2074 117.116 29.6108C116.514 30.0142 116.051 30.608 115.727 31.392C115.409 32.1761 115.25 33.1364 115.25 34.2727C115.25 35.4091 115.409 36.3693 115.727 37.1534C116.051 37.9375 116.514 38.5312 117.116 38.9347C117.719 39.3381 118.438 39.5398 119.273 39.5398C120.114 39.5398 120.832 39.3381 121.429 38.9347C122.031 38.5312 122.491 37.9375 122.81 37.1534C123.134 36.3693 123.295 35.4091 123.295 34.2727ZM135.227 43V25.5455H139.446V32.9261H139.676L145.446 25.5455H150.415L144.227 33.3352L150.526 43H145.48L141.134 36.1392L139.446 38.2699V43H135.227ZM156.366 25.5455H161.079L164.769 32.8494H164.923L168.613 25.5455H173.326L166.942 37.1705V43H162.749V37.1705L156.366 25.5455ZM103.045 60C102.858 59.4261 102.611 58.9119 102.304 58.4574C102.003 57.9972 101.642 57.6051 101.222 57.2812C100.807 56.9574 100.335 56.7102 99.8068 56.5398C99.2784 56.3693 98.6989 56.2841 98.0682 56.2841C97.0341 56.2841 96.0938 56.5511 95.2472 57.0852C94.4006 57.6193 93.7273 58.4062 93.2273 59.446C92.7273 60.4858 92.4773 61.7614 92.4773 63.2727C92.4773 64.7841 92.7301 66.0597 93.2358 67.0994C93.7415 68.1392 94.4261 68.9261 95.2898 69.4602C96.1534 69.9943 97.125 70.2614 98.2045 70.2614C99.2045 70.2614 100.085 70.0483 100.847 69.6222C101.614 69.1903 102.21 68.5824 102.636 67.7983C103.068 67.0085 103.284 66.0795 103.284 65.0114L103.932 65.1477H98.6818V63.2727H105.33V65.1477C105.33 66.5852 105.023 67.8352 104.409 68.8977C103.801 69.9602 102.96 70.7841 101.886 71.3693C100.818 71.9489 99.5909 72.2386 98.2045 72.2386C96.6591 72.2386 95.3011 71.875 94.1307 71.1477C92.9659 70.4205 92.0568 69.3864 91.4034 68.0455C90.7557 66.7045 90.4318 65.1136 90.4318 63.2727C90.4318 61.892 90.6165 60.6506 90.9858 59.5483C91.3608 58.4403 91.8892 57.4972 92.571 56.7188C93.2528 55.9403 94.0597 55.3438 94.9915 54.929C95.9233 54.5142 96.9489 54.3068 98.0682 54.3068C98.9886 54.3068 99.8466 54.446 100.642 54.7244C101.443 54.9972 102.156 55.3864 102.781 55.892C103.412 56.392 103.938 56.9915 104.358 57.6903C104.778 58.3835 105.068 59.1534 105.227 60H103.045ZM115.7 72V54.5455H121.597C122.961 54.5455 124.08 54.7784 124.955 55.2443C125.83 55.7045 126.478 56.3381 126.898 57.1449C127.319 57.9517 127.529 58.8693 127.529 59.8977C127.529 60.9261 127.319 61.8381 126.898 62.6335C126.478 63.429 125.833 64.054 124.964 64.5085C124.094 64.9574 122.984 65.1818 121.631 65.1818H116.859V63.2727H121.563C122.495 63.2727 123.245 63.1364 123.813 62.8636C124.387 62.5909 124.802 62.2045 125.058 61.7045C125.319 61.1989 125.45 60.5966 125.45 59.8977C125.45 59.1989 125.319 58.5881 125.058 58.0653C124.796 57.5426 124.379 57.1392 123.805 56.8551C123.231 56.5653 122.472 56.4205 121.529 56.4205H117.813V72H115.7ZM123.915 64.1591L128.211 72H125.756L121.529 64.1591H123.915ZM152.528 63.2727C152.528 65.1136 152.196 66.7045 151.531 68.0455C150.866 69.3864 149.955 70.4205 148.795 71.1477C147.636 71.875 146.313 72.2386 144.824 72.2386C143.335 72.2386 142.011 71.875 140.852 71.1477C139.693 70.4205 138.781 69.3864 138.116 68.0455C137.452 66.7045 137.119 65.1136 137.119 63.2727C137.119 61.4318 137.452 59.8409 138.116 58.5C138.781 57.1591 139.693 56.125 140.852 55.3977C142.011 54.6705 143.335 54.3068 144.824 54.3068C146.313 54.3068 147.636 54.6705 148.795 55.3977C149.955 56.125 150.866 57.1591 151.531 58.5C152.196 59.8409 152.528 61.4318 152.528 63.2727ZM150.483 63.2727C150.483 61.7614 150.23 60.4858 149.724 59.446C149.224 58.4062 148.545 57.6193 147.688 57.0852C146.835 56.5511 145.881 56.2841 144.824 56.2841C143.767 56.2841 142.81 56.5511 141.952 57.0852C141.099 57.6193 140.42 58.4062 139.915 59.446C139.415 60.4858 139.165 61.7614 139.165 63.2727C139.165 64.7841 139.415 66.0597 139.915 67.0994C140.42 68.1392 141.099 68.9261 141.952 69.4602C142.81 69.9943 143.767 70.2614 144.824 70.2614C145.881 70.2614 146.835 69.9943 147.688 69.4602C148.545 68.9261 149.224 68.1392 149.724 67.0994C150.23 66.0597 150.483 64.7841 150.483 63.2727ZM174.287 54.5455H176.401V66.1023C176.401 67.2955 176.119 68.3608 175.557 69.2983C175 70.2301 174.213 70.9659 173.196 71.5057C172.179 72.0398 170.986 72.3068 169.616 72.3068C168.247 72.3068 167.054 72.0398 166.037 71.5057C165.02 70.9659 164.23 70.2301 163.668 69.2983C163.111 68.3608 162.832 67.2955 162.832 66.1023V54.5455H164.946V65.9318C164.946 66.7841 165.134 67.5426 165.509 68.2074C165.884 68.8665 166.418 69.3864 167.111 69.767C167.81 70.142 168.645 70.3295 169.616 70.3295C170.588 70.3295 171.423 70.142 172.122 69.767C172.821 69.3864 173.355 68.8665 173.724 68.2074C174.099 67.5426 174.287 66.7841 174.287 65.9318V54.5455ZM187.371 72V54.5455H193.269C194.638 54.5455 195.758 54.7926 196.627 55.2869C197.502 55.7756 198.15 56.4375 198.57 57.2727C198.991 58.108 199.201 59.0398 199.201 60.0682C199.201 61.0966 198.991 62.0312 198.57 62.8722C198.156 63.7131 197.513 64.3835 196.644 64.8835C195.775 65.3778 194.661 65.625 193.303 65.625H189.076V63.75H193.235C194.173 63.75 194.925 63.5881 195.494 63.2642C196.062 62.9403 196.474 62.5028 196.729 61.9517C196.991 61.3949 197.121 60.767 197.121 60.0682C197.121 59.3693 196.991 58.7443 196.729 58.1932C196.474 57.642 196.059 57.2102 195.485 56.8977C194.911 56.5795 194.15 56.4205 193.201 56.4205H189.485V72H187.371Z" fill="#022E58"/>
<path d="M90.321 43H89.321V44H90.321V43ZM90.321 25.5455V24.5455H89.321V25.5455H90.321ZM100.915 26.3125L100.44 27.1928L100.447 27.1962L100.915 26.3125ZM103.122 28.4347L102.253 28.929L102.254 28.9314L103.122 28.4347ZM103.105 34.75L102.242 34.2451L102.241 34.2468L103.105 34.75ZM100.864 36.8381L101.317 37.7293L101.317 37.7293L100.864 36.8381ZM92.9545 37.5795H91.9545V38.5795H92.9545V37.5795ZM92.9545 34.2557V33.2557H91.9545V34.2557H92.9545ZM98.2131 33.9233L97.7565 33.0336L97.7517 33.0361L98.2131 33.9233ZM99.1932 32.9943L100.067 33.481L100.07 33.4758L99.1932 32.9943ZM99.1932 30.1903L98.3196 30.6771L98.3226 30.6824L99.1932 30.1903ZM98.2131 29.2699L97.7659 30.1643L97.7659 30.1643L98.2131 29.2699ZM94.5398 28.946V27.946H93.5398V28.946H94.5398ZM94.5398 43V44H95.5398V43H94.5398ZM90.321 43H91.321V25.5455H90.321H89.321V43H90.321ZM90.321 25.5455V26.5455H97.5312V25.5455V24.5455H90.321V25.5455ZM97.5312 25.5455V26.5455C98.7074 26.5455 99.6652 26.775 100.44 27.1928L100.915 26.3125L101.389 25.4322C100.267 24.8272 98.9688 24.5455 97.5312 24.5455V25.5455ZM100.915 26.3125L100.447 27.1962C101.239 27.6159 101.833 28.1908 102.253 28.929L103.122 28.4347L103.991 27.9403C103.377 26.8603 102.5 26.0204 101.383 25.4288L100.915 26.3125ZM103.122 28.4347L102.254 28.9314C102.672 29.6619 102.898 30.5367 102.898 31.5881H103.898H104.898C104.898 30.2417 104.606 29.0142 103.99 27.9379L103.122 28.4347ZM103.898 31.5881H102.898C102.898 32.6423 102.668 33.5168 102.242 34.2451L103.105 34.75L103.968 35.2549C104.599 34.1764 104.898 32.9429 104.898 31.5881H103.898ZM103.105 34.75L102.241 34.2468C101.82 34.97 101.219 35.5351 100.41 35.9468L100.864 36.8381L101.317 37.7293C102.451 37.1524 103.345 36.3255 103.969 35.2532L103.105 34.75ZM100.864 36.8381L100.41 35.9468C99.6072 36.3553 98.6159 36.5795 97.4034 36.5795V37.5795V38.5795C98.8614 38.5795 100.177 38.3094 101.317 37.7293L100.864 36.8381ZM97.4034 37.5795V36.5795H92.9545V37.5795V38.5795H97.4034V37.5795ZM92.9545 37.5795H93.9545V34.2557H92.9545H91.9545V37.5795H92.9545ZM92.9545 34.2557V35.2557H96.6193V34.2557V33.2557H92.9545V34.2557ZM96.6193 34.2557V35.2557C97.3662 35.2557 98.0671 35.1263 98.6744 34.8105L98.2131 33.9233L97.7517 33.0361C97.5068 33.1635 97.1452 33.2557 96.6193 33.2557V34.2557ZM98.2131 33.9233L98.6696 34.813C99.265 34.5075 99.7426 34.0629 100.067 33.481L99.1932 32.9943L98.3196 32.5076C98.2006 32.7212 98.0248 32.8959 97.7565 33.0336L98.2131 33.9233ZM99.1932 32.9943L100.07 33.4758C100.384 32.9027 100.526 32.2633 100.526 31.5881H99.5256H98.5256C98.5256 31.981 98.4451 32.2791 98.3167 32.5129L99.1932 32.9943ZM99.5256 31.5881H100.526C100.526 30.9101 100.386 30.2677 100.064 29.6983L99.1932 30.1903L98.3226 30.6824C98.444 30.8971 98.5256 31.1865 98.5256 31.5881H99.5256ZM99.1932 30.1903L100.067 29.7036C99.7412 29.1194 99.2605 28.6756 98.6603 28.3755L98.2131 29.2699L97.7659 30.1643C98.0292 30.296 98.202 30.4659 98.3196 30.677L99.1932 30.1903ZM98.2131 29.2699L98.6603 28.3755C98.0538 28.0722 97.3595 27.946 96.6193 27.946V28.946V29.946C97.1405 29.946 97.5087 30.0358 97.7659 30.1643L98.2131 29.2699ZM96.6193 28.946V27.946H94.5398V28.946V29.946H96.6193V28.946ZM94.5398 28.946H93.5398V43H94.5398H95.5398V28.946H94.5398ZM94.5398 43V42H90.321V43V44H94.5398V43ZM126.5 39.1562L125.625 38.6722L125.625 38.6722L126.5 39.1562ZM123.5 42.1989L123.018 41.3225L123.017 41.3234L123.5 42.1989ZM115.037 42.1903L115.523 41.3166L115.523 41.3166L115.037 42.1903ZM112.045 39.1477L111.169 39.6289L111.171 39.6334L112.045 39.1477ZM112.045 29.3892L111.17 28.9051L111.169 28.908L112.045 29.3892ZM115.037 26.3466L115.52 27.2221L115.52 27.2221L115.037 26.3466ZM123.5 26.3466L123.017 27.2221L123.018 27.223L123.5 26.3466ZM126.5 29.3892L125.625 29.8733L125.625 29.8733L126.5 29.3892ZM122.81 31.392L121.883 31.7681L121.885 31.7738L122.81 31.392ZM121.429 29.6108L120.869 30.4392L120.872 30.4416L121.429 29.6108ZM117.116 29.6108L117.673 30.4416L117.673 30.4416L117.116 29.6108ZM115.727 31.392L114.803 31.0103L114.801 31.016L115.727 31.392ZM115.727 37.1534L114.801 37.5294L114.803 37.5352L115.727 37.1534ZM117.116 38.9347L117.673 38.1038L117.673 38.1038L117.116 38.9347ZM121.429 38.9347L120.872 38.1038L120.869 38.1063L121.429 38.9347ZM122.81 37.1534L121.885 36.7716L121.883 36.7774L122.81 37.1534ZM127.608 34.2727H126.608C126.608 36.0669 126.263 37.5187 125.625 38.6722L126.5 39.1562L127.375 39.6403C128.214 38.1234 128.608 36.3195 128.608 34.2727H127.608ZM126.5 39.1562L125.625 38.6722C124.972 39.8525 124.104 40.7259 123.018 41.3225L123.5 42.1989L123.982 43.0752C125.419 42.2855 126.551 41.1304 127.375 39.6403L126.5 39.1562ZM123.5 42.1989L123.017 41.3234C121.922 41.9277 120.682 42.2386 119.273 42.2386V43.2386V44.2386C120.989 44.2386 122.567 43.8564 123.983 43.0743L123.5 42.1989ZM119.273 43.2386V42.2386C117.859 42.2386 116.617 41.9252 115.523 41.3166L115.037 42.1903L114.551 43.0641C115.968 43.8532 117.55 44.2386 119.273 44.2386V43.2386ZM115.037 42.1903L115.523 41.3166C114.44 40.7138 113.573 39.8386 112.92 38.6621L112.045 39.1477L111.171 39.6334C111.995 41.116 113.122 42.2692 114.551 43.0641L115.037 42.1903ZM112.045 39.1477L112.922 38.6665C112.288 37.512 111.946 36.0617 111.946 34.2727H110.946H109.946C109.946 36.3133 110.337 38.113 111.169 39.6289L112.045 39.1477ZM110.946 34.2727H111.946C111.946 32.4774 112.289 31.0245 112.922 29.8704L112.045 29.3892L111.169 28.908C110.336 30.4243 109.946 32.2271 109.946 34.2727H110.946ZM112.045 29.3892L112.92 29.8733C113.574 28.6918 114.44 27.8184 115.52 27.2221L115.037 26.3466L114.554 25.4711C113.122 26.2612 111.994 27.4162 111.17 28.9051L112.045 29.3892ZM115.037 26.3466L115.52 27.2221C116.614 26.618 117.857 26.3068 119.273 26.3068V25.3068V24.3068C117.552 24.3068 115.971 24.6888 114.554 25.4711L115.037 26.3466ZM119.273 25.3068V26.3068C120.682 26.3068 121.922 26.6177 123.017 27.2221L123.5 26.3466L123.983 25.4711C122.567 24.6891 120.989 24.3068 119.273 24.3068V25.3068ZM123.5 26.3466L123.018 27.223C124.104 27.8196 124.972 28.6929 125.625 29.8733L126.5 29.3892L127.375 28.9051C126.551 27.415 125.419 26.2599 123.982 25.4702L123.5 26.3466ZM126.5 29.3892L125.625 29.8733C126.263 31.0268 126.608 32.4786 126.608 34.2727H127.608H128.608C128.608 32.2259 128.214 30.4221 127.375 28.9051L126.5 29.3892ZM123.295 34.2727H124.295C124.295 33.0473 124.122 31.949 123.734 31.0103L122.81 31.392L121.885 31.7738C122.145 32.4033 122.295 33.2254 122.295 34.2727H123.295ZM122.81 31.392L123.736 31.016C123.356 30.0785 122.78 29.3122 121.985 28.78L121.429 29.6108L120.872 30.4416C121.282 30.7162 121.627 31.1374 121.883 31.7681L122.81 31.392ZM121.429 29.6108L121.989 28.7824C121.201 28.2494 120.279 28.0057 119.273 28.0057V29.0057V30.0057C119.948 30.0057 120.464 30.1654 120.869 30.4392L121.429 29.6108ZM119.273 29.0057V28.0057C118.27 28.0057 117.351 28.2502 116.56 28.78L117.116 29.6108L117.673 30.4416C118.087 30.1646 118.605 30.0057 119.273 30.0057V29.0057ZM117.116 29.6108L116.56 28.78C115.767 29.3111 115.189 30.0753 114.803 31.0103L115.727 31.392L116.652 31.7738C116.913 31.1406 117.261 30.7173 117.673 30.4416L117.116 29.6108ZM115.727 31.392L114.801 31.016C114.42 31.9529 114.25 33.0491 114.25 34.2727H115.25H116.25C116.25 33.2236 116.398 32.3994 116.654 31.7681L115.727 31.392ZM115.25 34.2727H114.25C114.25 35.4964 114.42 36.5926 114.801 37.5294L115.727 37.1534L116.654 36.7774C116.398 36.1461 116.25 35.3218 116.25 34.2727H115.25ZM115.727 37.1534L114.803 37.5352C115.189 38.4702 115.767 39.2343 116.56 39.7655L117.116 38.9347L117.673 38.1038C117.261 37.8282 116.913 37.4048 116.652 36.7716L115.727 37.1534ZM117.116 38.9347L116.56 39.7655C117.351 40.2953 118.27 40.5398 119.273 40.5398V39.5398V38.5398C118.605 38.5398 118.087 38.3809 117.673 38.1038L117.116 38.9347ZM119.273 39.5398V40.5398C120.279 40.5398 121.201 40.2961 121.989 39.7631L121.429 38.9347L120.869 38.1063C120.464 38.38 119.948 38.5398 119.273 38.5398V39.5398ZM121.429 38.9347L121.985 39.7655C122.78 39.2332 123.356 38.4669 123.736 37.5294L122.81 37.1534L121.883 36.7774C121.627 37.4081 121.282 37.8293 120.872 38.1038L121.429 38.9347ZM122.81 37.1534L123.734 37.5352C124.122 36.5965 124.295 35.4981 124.295 34.2727H123.295H122.295C122.295 35.3201 122.145 36.1422 121.885 36.7716L122.81 37.1534ZM135.227 43H134.227V44H135.227V43ZM135.227 25.5455V24.5455H134.227V25.5455H135.227ZM139.446 25.5455H140.446V24.5455H139.446V25.5455ZM139.446 32.9261H138.446V33.9261H139.446V32.9261ZM139.676 32.9261V33.9261H140.164L140.464 33.542L139.676 32.9261ZM145.446 25.5455V24.5455H144.958L144.658 24.9296L145.446 25.5455ZM150.415 25.5455L151.198 26.1674L152.486 24.5455H150.415V25.5455ZM144.227 33.3352L143.444 32.7133L142.996 33.2775L143.389 33.8812L144.227 33.3352ZM150.526 43V44H152.371L151.363 42.454L150.526 43ZM145.48 43L144.635 43.5352L144.93 44H145.48V43ZM141.134 36.1392L141.978 35.604L141.224 34.4139L140.35 35.5183L141.134 36.1392ZM139.446 38.2699L138.662 37.649L138.446 37.9219V38.2699H139.446ZM139.446 43V44H140.446V43H139.446ZM135.227 43H136.227V25.5455H135.227H134.227V43H135.227ZM135.227 25.5455V26.5455H139.446V25.5455V24.5455H135.227V25.5455ZM139.446 25.5455H138.446V32.9261H139.446H140.446V25.5455H139.446ZM139.446 32.9261V33.9261H139.676V32.9261V31.9261H139.446V32.9261ZM139.676 32.9261L140.464 33.542L146.234 26.1613L145.446 25.5455L144.658 24.9296L138.888 32.3102L139.676 32.9261ZM145.446 25.5455V26.5455H150.415V25.5455V24.5455H145.446V25.5455ZM150.415 25.5455L149.632 24.9235L143.444 32.7133L144.227 33.3352L145.01 33.9572L151.198 26.1674L150.415 25.5455ZM144.227 33.3352L143.389 33.8812L149.688 43.546L150.526 43L151.363 42.454L145.065 32.7893L144.227 33.3352ZM150.526 43V42H145.48V43V44H150.526V43ZM145.48 43L146.325 42.4648L141.978 35.604L141.134 36.1392L140.289 36.6744L144.635 43.5352L145.48 43ZM141.134 36.1392L140.35 35.5183L138.662 37.649L139.446 38.2699L140.23 38.8907L141.917 36.7601L141.134 36.1392ZM139.446 38.2699H138.446V43H139.446H140.446V38.2699H139.446ZM139.446 43V42H135.227V43V44H139.446V43ZM156.366 25.5455V24.5455H154.676L155.489 26.0268L156.366 25.5455ZM161.079 25.5455L161.971 25.0945L161.694 24.5455H161.079V25.5455ZM164.769 32.8494L163.877 33.3004L164.154 33.8494H164.769V32.8494ZM164.923 32.8494V33.8494H165.538L165.815 33.3004L164.923 32.8494ZM168.613 25.5455V24.5455H167.998L167.72 25.0945L168.613 25.5455ZM173.326 25.5455L174.203 26.0268L175.016 24.5455H173.326V25.5455ZM166.942 37.1705L166.066 36.6891L165.942 36.914V37.1705H166.942ZM166.942 43V44H167.942V43H166.942ZM162.749 43H161.749V44H162.749V43ZM162.749 37.1705H163.749V36.914L163.626 36.6891L162.749 37.1705ZM156.366 25.5455V26.5455H161.079V25.5455V24.5455H156.366V25.5455ZM161.079 25.5455L160.186 25.9964L163.877 33.3004L164.769 32.8494L165.662 32.3985L161.971 25.0945L161.079 25.5455ZM164.769 32.8494V33.8494H164.923V32.8494V31.8494H164.769V32.8494ZM164.923 32.8494L165.815 33.3004L169.505 25.9964L168.613 25.5455L167.72 25.0945L164.03 32.3985L164.923 32.8494ZM168.613 25.5455V26.5455H173.326V25.5455V24.5455H168.613V25.5455ZM173.326 25.5455L172.449 25.0641L166.066 36.6891L166.942 37.1705L167.819 37.6518L174.203 26.0268L173.326 25.5455ZM166.942 37.1705H165.942V43H166.942H167.942V37.1705H166.942ZM166.942 43V42H162.749V43V44H166.942V43ZM162.749 43H163.749V37.1705H162.749H161.749V43H162.749ZM162.749 37.1705L163.626 36.6891L157.242 25.0641L156.366 25.5455L155.489 26.0268L161.873 37.6518L162.749 37.1705ZM103.045 60L102.095 60.3106L102.32 61H103.045V60ZM102.304 58.4574L101.467 59.0049L101.471 59.0109L101.475 59.0169L102.304 58.4574ZM101.222 57.2812L100.606 58.0695L100.611 58.0735L101.222 57.2812ZM99.8068 56.5398L100.114 55.5881L100.114 55.5881L99.8068 56.5398ZM93.2273 59.446L94.1285 59.8794L94.1285 59.8794L93.2273 59.446ZM93.2358 67.0994L92.3365 67.5368L92.3365 67.5368L93.2358 67.0994ZM100.847 69.6222L101.335 70.4948L101.337 70.4936L100.847 69.6222ZM102.636 67.7983L101.759 67.3186L101.758 67.3208L102.636 67.7983ZM103.284 65.0114L103.49 64.0328L102.284 63.7789V65.0114H103.284ZM103.932 65.1477V66.1477L104.138 64.1692L103.932 65.1477ZM98.6818 65.1477H97.6818V66.1477H98.6818V65.1477ZM98.6818 63.2727V62.2727H97.6818V63.2727H98.6818ZM105.33 63.2727H106.33V62.2727H105.33V63.2727ZM104.409 68.8977L103.543 68.3976L103.541 68.4011L104.409 68.8977ZM101.886 71.3693L102.363 72.2483L102.365 72.2474L101.886 71.3693ZM94.1307 71.1477L93.6011 71.996L93.6029 71.9971L94.1307 71.1477ZM91.4034 68.0455L90.503 68.4804L90.5045 68.4835L91.4034 68.0455ZM90.9858 59.5483L90.0386 59.2277L90.0376 59.2306L90.9858 59.5483ZM92.571 56.7188L93.3233 57.3776L93.3233 57.3776L92.571 56.7188ZM100.642 54.7244L100.312 55.6683L100.32 55.6711L100.642 54.7244ZM102.781 55.892L102.152 56.6695L102.16 56.6757L102.781 55.892ZM104.358 57.6903L103.501 58.2059L103.503 58.209L104.358 57.6903ZM105.227 60V61H106.433L106.21 59.8153L105.227 60ZM103.045 60L103.996 59.6894C103.783 59.0361 103.496 58.4367 103.133 57.8979L102.304 58.4574L101.475 59.0169C101.725 59.3872 101.933 59.8161 102.095 60.3106L103.045 60ZM102.304 58.4574L103.141 57.9099C102.781 57.3594 102.344 56.8837 101.832 56.489L101.222 57.2812L100.611 58.0735C100.94 58.3266 101.225 58.6349 101.467 59.0049L102.304 58.4574ZM101.222 57.2812L101.837 56.4931C101.325 56.0931 100.748 55.7925 100.114 55.5881L99.8068 56.5398L99.4998 57.4915C99.9228 57.6279 100.289 57.8216 100.606 58.0694L101.222 57.2812ZM99.8068 56.5398L100.114 55.5881C99.4738 55.3816 98.7892 55.2841 98.0682 55.2841V56.2841V57.2841C98.6086 57.2841 99.083 57.357 99.4998 57.4915L99.8068 56.5398ZM98.0682 56.2841V55.2841C96.8518 55.2841 95.7254 55.6012 94.7136 56.2395L95.2472 57.0852L95.7807 57.931C96.4621 57.5011 97.2164 57.2841 98.0682 57.2841V56.2841ZM95.2472 57.0852L94.7136 56.2395C93.6851 56.8883 92.8948 57.83 92.3261 59.0127L93.2273 59.446L94.1285 59.8794C94.5598 58.9825 95.116 58.3503 95.7807 57.931L95.2472 57.0852ZM93.2273 59.446L92.3261 59.0127C91.7441 60.2228 91.4773 61.6559 91.4773 63.2727H92.4773H93.4773C93.4773 61.8668 93.7104 60.7488 94.1285 59.8794L93.2273 59.446ZM92.4773 63.2727H91.4773C91.4773 64.8909 91.7474 66.3255 92.3365 67.5368L93.2358 67.0994L94.1351 66.6621C93.7128 65.7938 93.4773 64.6773 93.4773 63.2727H92.4773ZM93.2358 67.0994L92.3365 67.5368C92.9132 68.7226 93.7177 69.6638 94.7638 70.3107L95.2898 69.4602L95.8157 68.6097C95.1346 68.1885 94.5697 67.5558 94.1351 66.6621L93.2358 67.0994ZM95.2898 69.4602L94.7638 70.3107C95.7956 70.9488 96.9514 71.2614 98.2045 71.2614V70.2614V69.2614C97.2986 69.2614 96.5113 69.0398 95.8157 68.6097L95.2898 69.4602ZM98.2045 70.2614V71.2614C99.3503 71.2614 100.404 71.016 101.335 70.4948L100.847 69.6222L100.358 68.7495C99.7667 69.0806 99.0588 69.2614 98.2045 69.2614V70.2614ZM100.847 69.6222L101.337 70.4936C102.27 69.9682 103 69.2226 103.515 68.2758L102.636 67.7983L101.758 67.3208C101.42 67.9421 100.957 68.4125 100.356 68.7508L100.847 69.6222ZM102.636 67.7983L103.514 68.278C104.04 67.3159 104.284 66.2159 104.284 65.0114H103.284H102.284C102.284 65.9432 102.097 66.7011 101.759 67.3186L102.636 67.7983ZM103.284 65.0114L103.078 65.9899L103.726 66.1263L103.932 65.1477L104.138 64.1692L103.49 64.0328L103.284 65.0114ZM103.932 65.1477V64.1477H98.6818V65.1477V66.1477H103.932V65.1477ZM98.6818 65.1477H99.6818V63.2727H98.6818H97.6818V65.1477H98.6818ZM98.6818 63.2727V64.2727H105.33V63.2727V62.2727H98.6818V63.2727ZM105.33 63.2727H104.33V65.1477H105.33H106.33V63.2727H105.33ZM105.33 65.1477H104.33C104.33 66.44 104.055 67.5115 103.543 68.3976L104.409 68.8977L105.275 69.3979C105.991 68.159 106.33 66.7304 106.33 65.1477H105.33ZM104.409 68.8977L103.541 68.4011C103.025 69.303 102.319 69.9947 101.408 70.4912L101.886 71.3693L102.365 72.2474C103.602 71.5734 104.577 70.6175 105.277 69.3944L104.409 68.8977ZM101.886 71.3693L101.409 70.4904C100.507 70.9799 99.4481 71.2386 98.2045 71.2386V72.2386V73.2386C99.7338 73.2386 101.129 72.9178 102.363 72.2483L101.886 71.3693ZM98.2045 72.2386V71.2386C96.8223 71.2386 95.6518 70.9156 94.6585 70.2983L94.1307 71.1477L93.6029 71.9971C94.9505 72.8344 96.4959 73.2386 98.2045 73.2386V72.2386ZM94.1307 71.1477L94.6603 70.2995C93.6684 69.6801 92.8809 68.7948 92.3024 67.6074L91.4034 68.0455L90.5045 68.4835C91.2327 69.978 92.2635 71.1608 93.6011 71.996L94.1307 71.1477ZM91.4034 68.0455L92.3039 67.6105C91.7353 66.4334 91.4318 64.9978 91.4318 63.2727H90.4318H89.4318C89.4318 65.2295 89.7761 66.9757 90.503 68.4804L91.4034 68.0455ZM90.4318 63.2727H91.4318C91.4318 61.9803 91.6047 60.8487 91.934 59.866L90.9858 59.5483L90.0376 59.2306C89.6282 60.4524 89.4318 61.8038 89.4318 63.2727H90.4318ZM90.9858 59.5483L91.933 59.8689C92.2714 58.8693 92.7386 58.0451 93.3233 57.3776L92.571 56.7188L91.8188 56.0599C91.0398 56.9492 90.4502 58.0114 90.0386 59.2277L90.9858 59.5483ZM92.571 56.7188L93.3233 57.3776C93.9111 56.7065 94.6006 56.1976 95.3981 55.8426L94.9915 54.929L94.5848 54.0154C93.5188 54.4899 92.5946 55.1742 91.8188 56.0599L92.571 56.7188ZM94.9915 54.929L95.3981 55.8426C96.1899 55.4901 97.0752 55.3068 98.0682 55.3068V54.3068V53.3068C96.8225 53.3068 95.6566 53.5383 94.5848 54.0154L94.9915 54.929ZM98.0682 54.3068V55.3068C98.8865 55.3068 99.6318 55.4303 100.312 55.6683L100.642 54.7244L100.972 53.7806C100.061 53.4617 99.0908 53.3068 98.0682 53.3068V54.3068ZM100.642 54.7244L100.32 55.6711C101.015 55.9079 101.623 56.2416 102.152 56.6695L102.781 55.892L103.41 55.1146C102.689 54.5311 101.871 54.0864 100.964 53.7778L100.642 54.7244ZM102.781 55.892L102.16 56.6757C102.695 57.1001 103.142 57.6084 103.501 58.2059L104.358 57.6903L105.215 57.1748C104.733 56.3746 104.128 55.684 103.402 55.1084L102.781 55.892ZM104.358 57.6903L103.503 58.209C103.857 58.7931 104.106 59.4487 104.244 60.1847L105.227 60L106.21 59.8153C106.03 58.8581 105.7 57.9739 105.213 57.1717L104.358 57.6903ZM105.227 60V59H103.045V60V61H105.227V60ZM115.7 72H114.7V73H115.7V72ZM115.7 54.5455V53.5455H114.7V54.5455H115.7ZM124.955 55.2443L124.485 56.127L124.49 56.1294L124.955 55.2443ZM126.898 57.1449L126.012 57.607L126.012 57.607L126.898 57.1449ZM126.898 62.6335L126.014 62.1662L126.014 62.1662L126.898 62.6335ZM124.964 64.5085L125.423 65.3971L125.427 65.3947L124.964 64.5085ZM116.859 65.1818H115.859V66.1818H116.859V65.1818ZM116.859 63.2727V62.2727H115.859V63.2727H116.859ZM123.813 62.8636L123.384 61.9604L123.38 61.9621L123.813 62.8636ZM125.058 61.7045L124.169 61.2454L124.167 61.2493L125.058 61.7045ZM123.805 56.8551L123.354 57.7478L123.361 57.7513L123.805 56.8551ZM117.813 56.4205V55.4205H116.813V56.4205H117.813ZM117.813 72V73H118.813V72H117.813ZM123.915 64.1591L124.793 63.6786L124.508 63.1591H123.915V64.1591ZM128.211 72V73H129.899L129.088 71.5195L128.211 72ZM125.756 72L124.876 72.4746L125.159 73H125.756V72ZM121.529 64.1591V63.1591H119.854L120.649 64.6336L121.529 64.1591ZM115.7 72H116.7V54.5455H115.7H114.7V72H115.7ZM115.7 54.5455V55.5455H121.597V54.5455V53.5455H115.7V54.5455ZM121.597 54.5455V55.5455C122.856 55.5455 123.799 55.7616 124.485 56.127L124.955 55.2443L125.425 54.3616C124.362 53.7952 123.066 53.5455 121.597 53.5455V54.5455ZM124.955 55.2443L124.49 56.1294C125.201 56.5034 125.693 56.9965 126.012 57.607L126.898 57.1449L127.785 56.6827C127.262 55.6796 126.46 54.9057 125.421 54.3593L124.955 55.2443ZM126.898 57.1449L126.012 57.607C126.349 58.2535 126.529 59.009 126.529 59.8977H127.529H128.529C128.529 58.7296 128.289 57.6499 127.785 56.6827L126.898 57.1449ZM127.529 59.8977H126.529C126.529 60.7867 126.348 61.5342 126.014 62.1662L126.898 62.6335L127.783 63.1008C128.289 62.1419 128.529 61.0655 128.529 59.8977H127.529ZM126.898 62.6335L126.014 62.1662C125.697 62.7665 125.207 63.2527 124.5 63.6224L124.964 64.5085L125.427 65.3947C126.459 64.8552 127.259 64.0915 127.783 63.1008L126.898 62.6335ZM124.964 64.5085L124.505 63.62C123.821 63.9731 122.882 64.1818 121.631 64.1818V65.1818V66.1818C123.086 66.1818 124.368 65.9417 125.423 65.3971L124.964 64.5085ZM121.631 65.1818V64.1818H116.859V65.1818V66.1818H121.631V65.1818ZM116.859 65.1818H117.859V63.2727H116.859H115.859V65.1818H116.859ZM116.859 63.2727V64.2727H121.563V63.2727V62.2727H116.859V63.2727ZM121.563 63.2727V64.2727C122.579 64.2727 123.494 64.1262 124.246 63.7652L123.813 62.8636L123.38 61.9621C122.996 62.1466 122.411 62.2727 121.563 62.2727V63.2727ZM123.813 62.8636L124.242 63.7668C124.988 63.4127 125.579 62.8812 125.948 62.1598L125.058 61.7045L124.167 61.2493C124.025 61.5279 123.786 61.7692 123.384 61.9604L123.813 62.8636ZM125.058 61.7045L125.946 62.1637C126.295 61.4873 126.45 60.7205 126.45 59.8977H125.45H124.45C124.45 60.4727 124.342 60.9104 124.169 61.2454L125.058 61.7045ZM125.45 59.8977H126.45C126.45 59.0737 126.295 58.3043 125.952 57.6181L125.058 58.0653L124.163 58.5126C124.343 58.8718 124.45 59.324 124.45 59.8977H125.45ZM125.058 58.0653L125.952 57.6181C125.584 56.8818 124.998 56.3298 124.248 55.9589L123.805 56.8551L123.361 57.7513C123.76 57.9486 124.009 58.2034 124.163 58.5126L125.058 58.0653ZM123.805 56.8551L124.255 55.9625C123.492 55.5769 122.561 55.4205 121.529 55.4205V56.4205V57.4205C122.383 57.4205 122.97 57.5538 123.354 57.7478L123.805 56.8551ZM121.529 56.4205V55.4205H117.813V56.4205V57.4205H121.529V56.4205ZM117.813 56.4205H116.813V72H117.813H118.813V56.4205H117.813ZM117.813 72V71H115.7V72V73H117.813V72ZM123.915 64.1591L123.038 64.6395L127.334 72.4805L128.211 72L129.088 71.5195L124.793 63.6786L123.915 64.1591ZM128.211 72V71H125.756V72V73H128.211V72ZM125.756 72L126.637 71.5254L122.409 63.6845L121.529 64.1591L120.649 64.6336L124.876 72.4746L125.756 72ZM121.529 64.1591V65.1591H123.915V64.1591V63.1591H121.529V64.1591ZM151.531 68.0455L150.635 67.6013L150.635 67.6013L151.531 68.0455ZM148.795 71.1477L149.327 71.9948L149.327 71.9948L148.795 71.1477ZM140.852 71.1477L140.321 71.9948L140.321 71.9948L140.852 71.1477ZM138.116 68.0455L139.012 67.6013L139.012 67.6013L138.116 68.0455ZM148.795 55.3977L149.327 54.5507L149.327 54.5507L148.795 55.3977ZM151.531 58.5L150.635 58.9442L150.635 58.9442L151.531 58.5ZM149.724 59.446L148.823 59.8794L148.825 59.8834L149.724 59.446ZM147.688 57.0852L147.156 57.9326L147.159 57.9342L147.688 57.0852ZM141.952 57.0852L141.423 56.2363L141.421 56.2379L141.952 57.0852ZM139.915 59.446L139.015 59.0087L139.014 59.0127L139.915 59.446ZM139.915 67.0994L139.014 67.5328L139.015 67.5368L139.915 67.0994ZM141.952 69.4602L141.421 70.3076L141.423 70.3092L141.952 69.4602ZM147.688 69.4602L147.159 68.6113L147.156 68.6129L147.688 69.4602ZM149.724 67.0994L148.825 66.6621L148.823 66.6661L149.724 67.0994ZM152.528 63.2727H151.528C151.528 64.9943 151.218 66.4265 150.635 67.6013L151.531 68.0455L152.427 68.4896C153.174 66.9825 153.528 65.2329 153.528 63.2727H152.528ZM151.531 68.0455L150.635 67.6013C150.045 68.7929 149.252 69.6806 148.264 70.3007L148.795 71.1477L149.327 71.9948C150.657 71.1603 151.688 69.9799 152.427 68.4896L151.531 68.0455ZM148.795 71.1477L148.264 70.3007C147.278 70.9193 146.142 71.2386 144.824 71.2386V72.2386V73.2386C146.483 73.2386 147.995 72.8307 149.327 71.9948L148.795 71.1477ZM144.824 72.2386V71.2386C143.506 71.2386 142.37 70.9193 141.384 70.3007L140.852 71.1477L140.321 71.9948C141.653 72.8307 143.164 73.2386 144.824 73.2386V72.2386ZM140.852 71.1477L141.384 70.3007C140.396 69.6806 139.603 68.7929 139.012 67.6013L138.116 68.0455L137.221 68.4896C137.959 69.9799 138.991 71.1603 140.321 71.9948L140.852 71.1477ZM138.116 68.0455L139.012 67.6013C138.43 66.4265 138.119 64.9943 138.119 63.2727H137.119H136.119C136.119 65.2329 136.473 66.9825 137.221 68.4896L138.116 68.0455ZM137.119 63.2727H138.119C138.119 61.5511 138.43 60.1189 139.012 58.9442L138.116 58.5L137.221 58.0558C136.473 59.5629 136.119 61.3125 136.119 63.2727H137.119ZM138.116 58.5L139.012 58.9442C139.603 57.7526 140.396 56.8649 141.384 56.2448L140.852 55.3977L140.321 54.5507C138.991 55.3851 137.959 56.5656 137.221 58.0558L138.116 58.5ZM140.852 55.3977L141.384 56.2448C142.37 55.6262 143.506 55.3068 144.824 55.3068V54.3068V53.3068C143.164 53.3068 141.653 53.7147 140.321 54.5507L140.852 55.3977ZM144.824 54.3068V55.3068C146.142 55.3068 147.278 55.6262 148.264 56.2448L148.795 55.3977L149.327 54.5507C147.995 53.7147 146.483 53.3068 144.824 53.3068V54.3068ZM148.795 55.3977L148.264 56.2448C149.252 56.8649 150.045 57.7526 150.635 58.9442L151.531 58.5L152.427 58.0558C151.688 56.5656 150.657 55.3851 149.327 54.5507L148.795 55.3977ZM151.531 58.5L150.635 58.9442C151.218 60.1189 151.528 61.5511 151.528 63.2727H152.528H153.528C153.528 61.3125 153.174 59.5629 152.427 58.0558L151.531 58.5ZM150.483 63.2727H151.483C151.483 61.6545 151.213 60.2199 150.624 59.0087L149.724 59.446L148.825 59.8834C149.247 60.7517 149.483 61.8682 149.483 63.2727H150.483ZM149.724 59.446L150.626 59.0127C150.055 57.8266 149.257 56.8843 148.216 56.2363L147.688 57.0852L147.159 57.9342C147.834 58.3543 148.394 58.9859 148.823 59.8794L149.724 59.446ZM147.688 57.0852L148.219 56.2379C147.199 55.5989 146.059 55.2841 144.824 55.2841V56.2841V57.2841C145.703 57.2841 146.472 57.5034 147.156 57.9326L147.688 57.0852ZM144.824 56.2841V55.2841C143.589 55.2841 142.447 55.5988 141.423 56.2363L141.952 57.0852L142.48 57.9342C143.172 57.5034 143.945 57.2841 144.824 57.2841V56.2841ZM141.952 57.0852L141.421 56.2379C140.387 56.8856 139.591 57.8262 139.015 59.0087L139.915 59.446L140.814 59.8834C141.25 58.9863 141.812 58.353 142.483 57.9326L141.952 57.0852ZM139.915 59.446L139.014 59.0127C138.432 60.2228 138.165 61.6559 138.165 63.2727H139.165H140.165C140.165 61.8668 140.398 60.7488 140.816 59.8794L139.915 59.446ZM139.165 63.2727H138.165C138.165 64.8895 138.432 66.3227 139.014 67.5328L139.915 67.0994L140.816 66.6661C140.398 65.7967 140.165 64.6787 140.165 63.2727H139.165ZM139.915 67.0994L139.015 67.5368C139.591 68.7193 140.387 69.6598 141.421 70.3076L141.952 69.4602L142.483 68.6129C141.812 68.1924 141.25 67.5591 140.814 66.6621L139.915 67.0994ZM141.952 69.4602L141.423 70.3092C142.447 70.9466 143.589 71.2614 144.824 71.2614V70.2614V69.2614C143.945 69.2614 143.172 69.042 142.48 68.6113L141.952 69.4602ZM144.824 70.2614V71.2614C146.059 71.2614 147.199 70.9466 148.219 70.3076L147.688 69.4602L147.156 68.6129C146.472 69.042 145.703 69.2614 144.824 69.2614V70.2614ZM147.688 69.4602L148.216 70.3092C149.257 69.6611 150.055 68.7188 150.626 67.5328L149.724 67.0994L148.823 66.6661C148.394 67.5596 147.834 68.1912 147.159 68.6113L147.688 69.4602ZM149.724 67.0994L150.624 67.5368C151.213 66.3255 151.483 64.8909 151.483 63.2727H150.483H149.483C149.483 64.6773 149.247 65.7938 148.825 66.6621L149.724 67.0994ZM174.287 54.5455V53.5455H173.287V54.5455H174.287ZM176.401 54.5455H177.401V53.5455H176.401V54.5455ZM175.557 69.2983L174.699 68.7838L174.698 68.7853L175.557 69.2983ZM173.196 71.5057L173.661 72.391L173.665 72.389L173.196 71.5057ZM166.037 71.5057L165.568 72.389L165.572 72.391L166.037 71.5057ZM163.668 69.2983L162.808 69.809L162.812 69.8151L163.668 69.2983ZM162.832 54.5455V53.5455H161.832V54.5455H162.832ZM164.946 54.5455H165.946V53.5455H164.946V54.5455ZM165.509 68.2074L164.638 68.6987L164.639 68.7019L165.509 68.2074ZM167.111 69.767L166.629 70.6436L166.638 70.6482L167.111 69.767ZM172.122 69.767L172.595 70.6482L172.601 70.6452L172.122 69.767ZM173.724 68.2074L172.853 67.7161L172.852 67.7186L173.724 68.2074ZM174.287 54.5455V55.5455H176.401V54.5455V53.5455H174.287V54.5455ZM176.401 54.5455H175.401V66.1023H176.401H177.401V54.5455H176.401ZM176.401 66.1023H175.401C175.401 67.1313 175.16 68.0158 174.699 68.7838L175.557 69.2983L176.414 69.8128C177.078 68.7058 177.401 67.4596 177.401 66.1023H176.401ZM175.557 69.2983L174.698 68.7853C174.241 69.5508 173.593 70.1628 172.727 70.6224L173.196 71.5057L173.665 72.389C174.833 71.7691 175.759 70.9094 176.415 69.8113L175.557 69.2983ZM173.196 71.5057L172.731 70.6203C171.883 71.0659 170.855 71.3068 169.616 71.3068V72.3068V73.3068C171.117 73.3068 172.475 73.0136 173.661 72.391L173.196 71.5057ZM169.616 72.3068V71.3068C168.378 71.3068 167.35 71.0659 166.502 70.6203L166.037 71.5057L165.572 72.391C166.758 73.0136 168.116 73.3068 169.616 73.3068V72.3068ZM166.037 71.5057L166.506 70.6224C165.639 70.1623 164.987 69.5493 164.524 68.7815L163.668 69.2983L162.812 69.8151C163.473 70.911 164.401 71.7695 165.568 72.389L166.037 71.5057ZM163.668 69.2983L164.527 68.7876C164.071 68.019 163.832 67.1332 163.832 66.1023H162.832H161.832C161.832 67.4577 162.151 68.7026 162.808 69.809L163.668 69.2983ZM162.832 66.1023H163.832V54.5455H162.832H161.832V66.1023H162.832ZM162.832 54.5455V55.5455H164.946V54.5455V53.5455H162.832V54.5455ZM164.946 54.5455H163.946V65.9318H164.946H165.946V54.5455H164.946ZM164.946 65.9318H163.946C163.946 66.9357 164.168 67.8671 164.638 68.6987L165.509 68.2074L166.38 67.7161C166.099 67.2181 165.946 66.6324 165.946 65.9318H164.946ZM165.509 68.2074L164.639 68.7019C165.11 69.5288 165.781 70.1779 166.629 70.6436L167.111 69.767L167.592 68.8905C167.054 68.5949 166.657 68.2041 166.378 67.7129L165.509 68.2074ZM167.111 69.767L166.638 70.6482C167.511 71.1169 168.517 71.3295 169.616 71.3295V70.3295V69.3295C168.773 69.3295 168.108 69.1672 167.584 68.8859L167.111 69.767ZM169.616 70.3295V71.3295C170.716 71.3295 171.721 71.1169 172.595 70.6482L172.122 69.767L171.649 68.8859C171.125 69.1672 170.46 69.3295 169.616 69.3295V70.3295ZM172.122 69.767L172.601 70.6452C173.456 70.1795 174.13 69.5286 174.597 68.6962L173.724 68.2074L172.852 67.7186C172.58 68.2044 172.187 68.5932 171.644 68.8889L172.122 69.767ZM173.724 68.2074L174.595 68.6987C175.065 67.8671 175.287 66.9357 175.287 65.9318H174.287H173.287C173.287 66.6324 173.134 67.2181 172.853 67.7161L173.724 68.2074ZM174.287 65.9318H175.287V54.5455H174.287H173.287V65.9318H174.287ZM187.371 72H186.371V73H187.371V72ZM187.371 54.5455V53.5455H186.371V54.5455H187.371ZM196.627 55.2869L196.133 56.1562L196.14 56.16L196.627 55.2869ZM198.57 57.2727L197.677 57.7224L197.677 57.7224L198.57 57.2727ZM198.57 62.8722L197.676 62.4249L197.673 62.4298L198.57 62.8722ZM196.644 64.8835L197.138 65.7528L197.143 65.7504L196.644 64.8835ZM189.076 65.625H188.076V66.625H189.076V65.625ZM189.076 63.75V62.75H188.076V63.75H189.076ZM195.494 63.2642L194.998 62.3954L194.998 62.3954L195.494 63.2642ZM196.729 61.9517L195.824 61.5268L195.822 61.5309L196.729 61.9517ZM196.729 58.1932L195.822 58.614L195.826 58.6217L196.729 58.1932ZM195.485 56.8977L195 57.7723L195.007 57.776L195.485 56.8977ZM189.485 56.4205V55.4205H188.485V56.4205H189.485ZM189.485 72V73H190.485V72H189.485ZM187.371 72H188.371V54.5455H187.371H186.371V72H187.371ZM187.371 54.5455V55.5455H193.269V54.5455V53.5455H187.371V54.5455ZM193.269 54.5455V55.5455C194.526 55.5455 195.46 55.7735 196.133 56.1562L196.627 55.2869L197.121 54.4176C196.056 53.8118 194.751 53.5455 193.269 53.5455V54.5455ZM196.627 55.2869L196.14 56.16C196.853 56.5586 197.353 57.0787 197.677 57.7224L198.57 57.2727L199.464 56.8231C198.947 55.7963 198.151 54.9926 197.115 54.4138L196.627 55.2869ZM198.57 57.2727L197.677 57.7224C198.021 58.4046 198.201 59.1801 198.201 60.0682H199.201H200.201C200.201 58.8994 199.961 57.8113 199.464 56.8231L198.57 57.2727ZM199.201 60.0682H198.201C198.201 60.9562 198.021 61.7356 197.676 62.4249L198.57 62.8722L199.465 63.3194C199.961 62.3269 200.201 61.237 200.201 60.0682H199.201ZM198.57 62.8722L197.673 62.4298C197.353 63.0803 196.856 63.6083 196.146 64.0167L196.644 64.8835L197.143 65.7504C198.171 65.1587 198.958 64.3458 199.467 63.3145L198.57 62.8722ZM196.644 64.8835L196.15 64.0142C195.476 64.3976 194.547 64.625 193.303 64.625V65.625V66.625C194.775 66.625 196.074 66.3581 197.138 65.7528L196.644 64.8835ZM193.303 65.625V64.625H189.076V65.625V66.625H193.303V65.625ZM189.076 65.625H190.076V63.75H189.076H188.076V65.625H189.076ZM189.076 63.75V64.75H193.235V63.75V62.75H189.076V63.75ZM193.235 63.75V64.75C194.275 64.75 195.218 64.5722 195.989 64.133L195.494 63.2642L194.998 62.3954C194.633 62.604 194.07 62.75 193.235 62.75V63.75ZM195.494 63.2642L195.989 64.133C196.723 63.7145 197.287 63.1268 197.637 62.3725L196.729 61.9517L195.822 61.5309C195.661 61.8789 195.401 62.1662 194.998 62.3954L195.494 63.2642ZM196.729 61.9517L197.635 62.3766C197.966 61.6698 198.121 60.8939 198.121 60.0682H197.121H196.121C196.121 60.6402 196.015 61.12 195.824 61.5268L196.729 61.9517ZM197.121 60.0682H198.121C198.121 59.2427 197.966 58.468 197.633 57.7647L196.729 58.1932L195.826 58.6217C196.015 59.0207 196.121 59.4959 196.121 60.0682H197.121ZM196.729 58.1932L197.637 57.7723C197.284 57.0117 196.71 56.4263 195.963 56.0195L195.485 56.8977L195.007 57.776C195.407 57.9941 195.664 58.2724 195.822 58.614L196.729 58.1932ZM195.485 56.8977L195.97 56.0232C195.196 55.5941 194.249 55.4205 193.201 55.4205V56.4205V57.4205C194.051 57.4205 194.626 57.565 195 57.7723L195.485 56.8977ZM193.201 56.4205V55.4205H189.485V56.4205V57.4205H193.201V56.4205ZM189.485 56.4205H188.485V72H189.485H190.485V56.4205H189.485ZM189.485 72V71H187.371V72V73H189.485V72Z" fill="#022E58" mask="url(#path-3-outside-1_37_29)"/>
</svg>
