<svg width="228" height="93" viewBox="0 0 228 93" fill="none" xmlns="http://www.w3.org/2000/svg">
<ellipse cx="27.5" cy="32" rx="16.5" ry="19" fill="#33B5E5"/>
<rect x="11" y="22" width="11" height="57" fill="#33B5E5"/>
<path d="M81 53C81 67.3594 72.2696 79 61.5 79C50.7304 79 42 67.3594 42 53C42 38.6406 50.7304 27 61.5 27C72.2696 27 81 38.6406 81 53Z" fill="#33B5E5"/>
<line x1="54.9062" y1="29.2383" x2="54.9062" y2="75.1591" stroke="white"/>
<path d="M55.105 53.2585L70.48 41.6017V29.9449" stroke="white"/>
<path d="M55.105 53.2584L71.1788 65.3172V74.4527" stroke="white"/>
<path d="M64.2484 59.2331L63.3649 60.5088L65.3376 60.9552L64.2484 59.2331Z" fill="#FFF9F9" stroke="white"/>
<path d="M55.105 53.2584H43.2244" stroke="white"/>
<mask id="path-9-inside-1_17_226" fill="white">
<ellipse cx="70.4799" cy="29.9448" rx="0.69886" ry="0.706474"/>
</mask>
<ellipse cx="70.4799" cy="29.9448" rx="0.69886" ry="0.706474" fill="#FFF9F9"/>
<ellipse cx="70.4799" cy="29.9448" rx="0.69886" ry="0.706474" fill="#FFF9F9"/>
<ellipse cx="70.4799" cy="29.9448" rx="0.69886" ry="0.706474" fill="#FFF9F9"/>
<path d="M71.1788 29.9448H70.1788C70.1788 29.7929 70.3034 29.6512 70.4799 29.6512V30.6512V31.6512C71.4284 31.6512 72.1788 30.877 72.1788 29.9448H71.1788ZM70.4799 30.6512V29.6512C70.6564 29.6512 70.7811 29.7929 70.7811 29.9448H69.7811H68.7811C68.7811 30.877 69.5315 31.6512 70.4799 31.6512V30.6512ZM69.7811 29.9448H70.7811C70.7811 30.0966 70.6564 30.2383 70.4799 30.2383V29.2383V28.2383C69.5315 28.2383 68.7811 29.0125 68.7811 29.9448H69.7811ZM70.4799 29.2383V30.2383C70.3034 30.2383 70.1788 30.0966 70.1788 29.9448H71.1788H72.1788C72.1788 29.0125 71.4284 28.2383 70.4799 28.2383V29.2383Z" fill="white" mask="url(#path-9-inside-1_17_226)"/>
<mask id="path-11-inside-2_17_226" fill="white">
<ellipse cx="43.2244" cy="53.2585" rx="0.69886" ry="0.706474"/>
</mask>
<ellipse cx="43.2244" cy="53.2585" rx="0.69886" ry="0.706474" fill="#FFF9F9"/>
<ellipse cx="43.2244" cy="53.2585" rx="0.69886" ry="0.706474" fill="#FFF9F9"/>
<ellipse cx="43.2244" cy="53.2585" rx="0.69886" ry="0.706474" fill="#FFF9F9"/>
<path d="M43.9233 53.2585H42.9233C42.9233 53.1067 43.0479 52.965 43.2244 52.965V53.965V54.965C44.1729 54.965 44.9233 54.1908 44.9233 53.2585H43.9233ZM43.2244 53.965V52.965C43.4009 52.965 43.5256 53.1067 43.5256 53.2585H42.5256H41.5256C41.5256 54.1908 42.276 54.965 43.2244 54.965V53.965ZM42.5256 53.2585H43.5256C43.5256 53.4104 43.4009 53.5521 43.2244 53.5521V52.5521V51.5521C42.276 51.5521 41.5256 52.3263 41.5256 53.2585H42.5256ZM43.2244 52.5521V53.5521C43.0479 53.5521 42.9233 53.4104 42.9233 53.2585H43.9233H44.9233C44.9233 52.3263 44.1729 51.5521 43.2244 51.5521V52.5521Z" fill="white" mask="url(#path-11-inside-2_17_226)"/>
<mask id="path-13-inside-3_17_226" fill="white">
<ellipse cx="71.1788" cy="74.4527" rx="0.69886" ry="0.706474"/>
</mask>
<ellipse cx="71.1788" cy="74.4527" rx="0.69886" ry="0.706474" fill="#FFF9F9"/>
<ellipse cx="71.1788" cy="74.4527" rx="0.69886" ry="0.706474" fill="#FFF9F9"/>
<ellipse cx="71.1788" cy="74.4527" rx="0.69886" ry="0.706474" fill="#FFF9F9"/>
<path d="M71.8777 74.4527H70.8777C70.8777 74.3008 71.0023 74.1592 71.1788 74.1592V75.1592V76.1592C72.1273 76.1592 72.8777 75.3849 72.8777 74.4527H71.8777ZM71.1788 75.1592V74.1592C71.3553 74.1592 71.4799 74.3008 71.4799 74.4527H70.4799H69.4799C69.4799 75.3849 70.2304 76.1592 71.1788 76.1592V75.1592ZM70.4799 74.4527H71.4799C71.4799 74.6046 71.3553 74.7462 71.1788 74.7462V73.7462V72.7462C70.2304 72.7462 69.4799 73.5205 69.4799 74.4527H70.4799ZM71.1788 73.7462V74.7462C71.0023 74.7462 70.8777 74.6046 70.8777 74.4527H71.8777H72.8777C72.8777 73.5205 72.1273 72.7462 71.1788 72.7462V73.7462Z" fill="white" mask="url(#path-13-inside-3_17_226)"/>
<mask id="path-15-inside-4_17_226" fill="white">
<ellipse cx="54.7556" cy="75.1592" rx="0.69886" ry="0.706474"/>
</mask>
<ellipse cx="54.7556" cy="75.1592" rx="0.69886" ry="0.706474" fill="#FFF9F9"/>
<ellipse cx="54.7556" cy="75.1592" rx="0.69886" ry="0.706474" fill="#FFF9F9"/>
<ellipse cx="54.7556" cy="75.1592" rx="0.69886" ry="0.706474" fill="#FFF9F9"/>
<path d="M55.4544 75.1592H54.4544C54.4544 75.0074 54.5791 74.8657 54.7556 74.8657V75.8657V76.8657C55.704 76.8657 56.4544 76.0914 56.4544 75.1592H55.4544ZM54.7556 75.8657V74.8657C54.9321 74.8657 55.0567 75.0074 55.0567 75.1592H54.0567H53.0567C53.0567 76.0914 53.8071 76.8657 54.7556 76.8657V75.8657ZM54.0567 75.1592H55.0567C55.0567 75.3111 54.9321 75.4528 54.7556 75.4528V74.4528V73.4528C53.8071 73.4528 53.0567 74.227 53.0567 75.1592H54.0567ZM54.7556 74.4528V75.4528C54.5791 75.4528 54.4544 75.3111 54.4544 75.1592H55.4544H56.4544C56.4544 74.227 55.704 73.4528 54.7556 73.4528V74.4528Z" fill="white" mask="url(#path-15-inside-4_17_226)"/>
<mask id="path-17-inside-5_17_226" fill="white">
<ellipse cx="54.7556" cy="29.2383" rx="0.69886" ry="0.706474"/>
</mask>
<ellipse cx="54.7556" cy="29.2383" rx="0.69886" ry="0.706474" fill="#FFF9F9"/>
<ellipse cx="54.7556" cy="29.2383" rx="0.69886" ry="0.706474" fill="#FFF9F9"/>
<ellipse cx="54.7556" cy="29.2383" rx="0.69886" ry="0.706474" fill="#FFF9F9"/>
<path d="M55.4544 29.2383H54.4544C54.4544 29.0865 54.5791 28.9448 54.7556 28.9448V29.9448V30.9448C55.704 30.9448 56.4544 30.1705 56.4544 29.2383H55.4544ZM54.7556 29.9448V28.9448C54.9321 28.9448 55.0567 29.0865 55.0567 29.2383H54.0567H53.0567C53.0567 30.1705 53.8071 30.9448 54.7556 30.9448V29.9448ZM54.0567 29.2383H55.0567C55.0567 29.3902 54.9321 29.5319 54.7556 29.5319V28.5319V27.5319C53.8071 27.5319 53.0567 28.3061 53.0567 29.2383H54.0567ZM54.7556 28.5319V29.5319C54.5791 29.5319 54.4544 29.3902 54.4544 29.2383H55.4544H56.4544C56.4544 28.3061 55.704 27.5319 54.7556 27.5319V28.5319Z" fill="white" mask="url(#path-17-inside-5_17_226)"/>
<ellipse cx="27.5" cy="32" rx="16.5" ry="19" fill="#33B5E5"/>
<rect x="11" y="22" width="11" height="57" fill="#33B5E5"/>
<path d="M81 53C81 67.3594 72.2696 79 61.5 79C50.7304 79 42 67.3594 42 53C42 38.6406 50.7304 27 61.5 27C72.2696 27 81 38.6406 81 53Z" fill="#33B5E5"/>
<line x1="53.9138" y1="29.7537" x2="53.9138" y2="75.087" stroke="white"/>
<path d="M54.4236 53.4058L70.5813 42.5652V31.7247" stroke="white"/>
<path d="M54.4236 53.4058L70.5813 65.1809V74.1014" stroke="white"/>
<path d="M64.0283 59.676L63.1448 60.9516L65.1175 61.3981L64.0283 59.676Z" fill="#FFF9F9" stroke="white"/>
<path d="M54.4236 53.4058H43.3153" stroke="white"/>
<mask id="path-27-inside-6_17_226" fill="white">
<ellipse cx="53.9995" cy="75.0869" rx="1.00985" ry="0.985507"/>
</mask>
<ellipse cx="53.9995" cy="75.0869" rx="1.00985" ry="0.985507" fill="#FFF9F9"/>
<ellipse cx="53.9995" cy="75.0869" rx="1.00985" ry="0.985507" fill="#FFF9F9"/>
<ellipse cx="53.9995" cy="75.0869" rx="1.00985" ry="0.985507" fill="#FFF9F9"/>
<path d="M55.0094 75.0869H54.0094C54.0094 75.0856 54.0095 75.0832 54.0101 75.0803C54.0107 75.0775 54.0116 75.075 54.0125 75.0729C54.0142 75.0688 54.0157 75.0676 54.0152 75.0681C54.0146 75.0687 54.0132 75.0698 54.011 75.0707C54.0095 75.0713 54.0062 75.0725 53.9995 75.0725V76.0725V77.0725C55.0864 77.0725 56.0094 76.2064 56.0094 75.0869H55.0094ZM53.9995 76.0725V75.0725C53.9928 75.0725 53.9895 75.0713 53.988 75.0707C53.9858 75.0698 53.9844 75.0687 53.9839 75.0681C53.9833 75.0676 53.9848 75.0688 53.9865 75.0729C53.9875 75.075 53.9883 75.0775 53.9889 75.0803C53.9895 75.0832 53.9897 75.0856 53.9897 75.0869H52.9897H51.9897C51.9897 76.2064 52.9126 77.0725 53.9995 77.0725V76.0725ZM52.9897 75.0869H53.9897C53.9897 75.0883 53.9895 75.0907 53.9889 75.0936C53.9883 75.0964 53.9875 75.0989 53.9865 75.101C53.9848 75.1051 53.9833 75.1063 53.9839 75.1058C53.9844 75.1052 53.9858 75.1041 53.988 75.1032C53.9895 75.1026 53.9928 75.1014 53.9995 75.1014V74.1014V73.1014C52.9126 73.1014 51.9897 73.9675 51.9897 75.0869H52.9897ZM53.9995 74.1014V75.1014C54.0062 75.1014 54.0095 75.1026 54.011 75.1032C54.0132 75.1041 54.0146 75.1052 54.0152 75.1058C54.0157 75.1063 54.0142 75.1051 54.0125 75.101C54.0116 75.0989 54.0107 75.0964 54.0101 75.0936C54.0095 75.0907 54.0094 75.0883 54.0094 75.0869H55.0094H56.0094C56.0094 73.9675 55.0864 73.1014 53.9995 73.1014V74.1014Z" fill="white" mask="url(#path-27-inside-6_17_226)"/>
<mask id="path-29-inside-7_17_226" fill="white">
<ellipse cx="43.3153" cy="53.4058" rx="1.00985" ry="0.985507"/>
</mask>
<ellipse cx="43.3153" cy="53.4058" rx="1.00985" ry="0.985507" fill="#FFF9F9"/>
<ellipse cx="43.3153" cy="53.4058" rx="1.00985" ry="0.985507" fill="#FFF9F9"/>
<ellipse cx="43.3153" cy="53.4058" rx="1.00985" ry="0.985507" fill="#FFF9F9"/>
<path d="M44.3251 53.4058H43.3251C43.3251 53.4044 43.3253 53.4021 43.3259 53.3992C43.3265 53.3964 43.3273 53.3938 43.3282 53.3917C43.33 53.3876 43.3315 53.3864 43.3309 53.387C43.3303 53.3875 43.329 53.3886 43.3268 53.3895C43.3253 53.3901 43.3219 53.3913 43.3153 53.3913V54.3913V55.3913C44.4021 55.3913 45.3251 54.5252 45.3251 53.4058H44.3251ZM43.3153 54.3913V53.3913C43.3086 53.3913 43.3053 53.3901 43.3037 53.3895C43.3016 53.3886 43.3002 53.3875 43.2996 53.387C43.2991 53.3864 43.3005 53.3876 43.3023 53.3917C43.3032 53.3938 43.3041 53.3964 43.3047 53.3992C43.3053 53.4021 43.3054 53.4044 43.3054 53.4058H42.3054H41.3054C41.3054 54.5252 42.2284 55.3913 43.3153 55.3913V54.3913ZM42.3054 53.4058H43.3054C43.3054 53.4072 43.3053 53.4095 43.3047 53.4124C43.3041 53.4152 43.3032 53.4178 43.3023 53.4199C43.3005 53.424 43.2991 53.4252 43.2996 53.4246C43.3002 53.4241 43.3016 53.423 43.3037 53.4221C43.3053 53.4214 43.3086 53.4203 43.3153 53.4203V52.4203V51.4203C42.2284 51.4203 41.3054 52.2864 41.3054 53.4058H42.3054ZM43.3153 52.4203V53.4203C43.3219 53.4203 43.3253 53.4214 43.3268 53.4221C43.329 53.423 43.3303 53.4241 43.3309 53.4246C43.3315 53.4252 43.33 53.424 43.3282 53.4199C43.3273 53.4178 43.3265 53.4152 43.3259 53.4124C43.3253 53.4095 43.3251 53.4072 43.3251 53.4058H44.3251H45.3251C45.3251 52.2864 44.4021 51.4203 43.3153 51.4203V52.4203Z" fill="white" mask="url(#path-29-inside-7_17_226)"/>
<mask id="path-31-inside-8_17_226" fill="white">
<ellipse cx="70.5813" cy="74.1014" rx="1.00985" ry="0.985507"/>
</mask>
<ellipse cx="70.5813" cy="74.1014" rx="1.00985" ry="0.985507" fill="#FFF9F9"/>
<ellipse cx="70.5813" cy="74.1014" rx="1.00985" ry="0.985507" fill="#FFF9F9"/>
<ellipse cx="70.5813" cy="74.1014" rx="1.00985" ry="0.985507" fill="#FFF9F9"/>
<path d="M71.5911 74.1014H70.5911C70.5911 74.1 70.5913 74.0977 70.5919 74.0948C70.5925 74.092 70.5933 74.0894 70.5942 74.0873C70.596 74.0832 70.5975 74.082 70.5969 74.0826C70.5964 74.0831 70.595 74.0842 70.5928 74.0851C70.5913 74.0858 70.5879 74.0869 70.5813 74.0869V75.0869V76.0869C71.6681 76.0869 72.5911 75.2208 72.5911 74.1014H71.5911ZM70.5813 75.0869V74.0869C70.5746 74.0869 70.5713 74.0858 70.5697 74.0851C70.5676 74.0842 70.5662 74.0831 70.5656 74.0826C70.5651 74.082 70.5665 74.0832 70.5683 74.0873C70.5692 74.0894 70.5701 74.092 70.5707 74.0948C70.5713 74.0977 70.5714 74.1 70.5714 74.1014H69.5714H68.5714C68.5714 75.2208 69.4944 76.0869 70.5813 76.0869V75.0869ZM69.5714 74.1014H70.5714C70.5714 74.1028 70.5713 74.1051 70.5707 74.108C70.5701 74.1108 70.5692 74.1134 70.5683 74.1155C70.5665 74.1196 70.5651 74.1208 70.5656 74.1202C70.5662 74.1197 70.5676 74.1186 70.5697 74.1177C70.5713 74.1171 70.5746 74.1159 70.5813 74.1159V73.1159V72.1159C69.4944 72.1159 68.5714 72.982 68.5714 74.1014H69.5714ZM70.5813 73.1159V74.1159C70.5879 74.1159 70.5913 74.1171 70.5928 74.1177C70.595 74.1186 70.5964 74.1197 70.5969 74.1202C70.5975 74.1208 70.596 74.1196 70.5942 74.1155C70.5933 74.1134 70.5925 74.1108 70.5919 74.108C70.5913 74.1051 70.5911 74.1028 70.5911 74.1014H71.5911H72.5911C72.5911 72.982 71.6681 72.1159 70.5813 72.1159V73.1159Z" fill="white" mask="url(#path-31-inside-8_17_226)"/>
<mask id="path-33-inside-9_17_226" fill="white">
<ellipse cx="70.5813" cy="31.7246" rx="1.00985" ry="0.985507"/>
</mask>
<ellipse cx="70.5813" cy="31.7246" rx="1.00985" ry="0.985507" fill="#FFF9F9"/>
<ellipse cx="70.5813" cy="31.7246" rx="1.00985" ry="0.985507" fill="#FFF9F9"/>
<ellipse cx="70.5813" cy="31.7246" rx="1.00985" ry="0.985507" fill="#FFF9F9"/>
<path d="M71.5911 31.7246H70.5911C70.5911 31.7233 70.5913 31.7209 70.5919 31.718C70.5925 31.7152 70.5933 31.7127 70.5942 31.7106C70.596 31.7065 70.5975 31.7053 70.5969 31.7058C70.5964 31.7064 70.595 31.7075 70.5928 31.7084C70.5913 31.709 70.5879 31.7102 70.5813 31.7102V32.7102V33.7102C71.6681 33.7102 72.5911 32.8441 72.5911 31.7246H71.5911ZM70.5813 32.7102V31.7102C70.5746 31.7102 70.5713 31.709 70.5697 31.7084C70.5676 31.7075 70.5662 31.7064 70.5656 31.7058C70.5651 31.7053 70.5665 31.7065 70.5683 31.7106C70.5692 31.7127 70.5701 31.7152 70.5707 31.718C70.5713 31.7209 70.5714 31.7233 70.5714 31.7246H69.5714H68.5714C68.5714 32.8441 69.4944 33.7102 70.5813 33.7102V32.7102ZM69.5714 31.7246H70.5714C70.5714 31.726 70.5713 31.7284 70.5707 31.7313C70.5701 31.7341 70.5692 31.7366 70.5683 31.7387C70.5665 31.7428 70.5651 31.744 70.5656 31.7435C70.5662 31.7429 70.5676 31.7418 70.5697 31.7409C70.5713 31.7403 70.5746 31.7391 70.5813 31.7391V30.7391V29.7391C69.4944 29.7391 68.5714 30.6052 68.5714 31.7246H69.5714ZM70.5813 30.7391V31.7391C70.5879 31.7391 70.5913 31.7403 70.5928 31.7409C70.595 31.7418 70.5964 31.7429 70.5969 31.7435C70.5975 31.744 70.596 31.7428 70.5942 31.7387C70.5933 31.7366 70.5925 31.7341 70.5919 31.7313C70.5913 31.7284 70.5911 31.726 70.5911 31.7246H71.5911H72.5911C72.5911 30.6052 71.6681 29.7391 70.5813 29.7391V30.7391Z" fill="white" mask="url(#path-33-inside-9_17_226)"/>
<mask id="path-35-inside-10_17_226" fill="white">
<ellipse cx="53.9995" cy="29.7536" rx="1.00985" ry="0.985507"/>
</mask>
<ellipse cx="53.9995" cy="29.7536" rx="1.00985" ry="0.985507" fill="#FFF9F9"/>
<ellipse cx="53.9995" cy="29.7536" rx="1.00985" ry="0.985507" fill="#FFF9F9"/>
<ellipse cx="53.9995" cy="29.7536" rx="1.00985" ry="0.985507" fill="#FFF9F9"/>
<path d="M55.0094 29.7536H54.0094C54.0094 29.7522 54.0095 29.7499 54.0101 29.747C54.0107 29.7442 54.0116 29.7417 54.0125 29.7396C54.0142 29.7355 54.0157 29.7343 54.0152 29.7348C54.0146 29.7354 54.0132 29.7365 54.011 29.7373C54.0095 29.738 54.0062 29.7391 53.9995 29.7391V30.7391V31.7391C55.0864 31.7391 56.0094 30.8731 56.0094 29.7536H55.0094ZM53.9995 30.7391V29.7391C53.9928 29.7391 53.9895 29.738 53.988 29.7373C53.9858 29.7365 53.9844 29.7354 53.9839 29.7348C53.9833 29.7343 53.9848 29.7355 53.9865 29.7396C53.9875 29.7417 53.9883 29.7442 53.9889 29.747C53.9895 29.7499 53.9897 29.7522 53.9897 29.7536H52.9897H51.9897C51.9897 30.8731 52.9126 31.7391 53.9995 31.7391V30.7391ZM52.9897 29.7536H53.9897C53.9897 29.755 53.9895 29.7574 53.9889 29.7602C53.9883 29.7631 53.9875 29.7656 53.9865 29.7677C53.9848 29.7718 53.9833 29.773 53.9839 29.7725C53.9844 29.7719 53.9858 29.7708 53.988 29.7699C53.9895 29.7693 53.9928 29.7681 53.9995 29.7681V28.7681V27.7681C52.9126 27.7681 51.9897 28.6342 51.9897 29.7536H52.9897ZM53.9995 28.7681V29.7681C54.0062 29.7681 54.0095 29.7693 54.011 29.7699C54.0132 29.7708 54.0146 29.7719 54.0152 29.7725C54.0157 29.773 54.0142 29.7718 54.0125 29.7677C54.0116 29.7656 54.0107 29.7631 54.0101 29.7602C54.0095 29.7574 54.0094 29.755 54.0094 29.7536H55.0094H56.0094C56.0094 28.6342 55.0864 27.7681 53.9995 27.7681V28.7681Z" fill="white" mask="url(#path-35-inside-10_17_226)"/>
<path d="M82.2642 80V65.4545H88.0028C89.1061 65.4545 90.0459 65.6652 90.8224 66.0866C91.599 66.5033 92.1908 67.0833 92.598 67.8267C93.0099 68.5653 93.2159 69.4176 93.2159 70.3835C93.2159 71.3494 93.0076 72.2017 92.5909 72.9403C92.1742 73.679 91.5705 74.2543 90.7798 74.6662C89.9938 75.0781 89.0421 75.2841 87.9247 75.2841H84.267V72.8196H87.4276C88.0194 72.8196 88.5071 72.7178 88.8906 72.5142C89.2789 72.3059 89.5677 72.0194 89.7571 71.6548C89.9512 71.2855 90.0483 70.8617 90.0483 70.3835C90.0483 69.9006 89.9512 69.4792 89.7571 69.1193C89.5677 68.7547 89.2789 68.473 88.8906 68.2741C88.5024 68.0705 88.0099 67.9688 87.4134 67.9688H85.3395V80H82.2642ZM108.58 72.7273C108.58 74.3134 108.279 75.6629 107.678 76.7756C107.081 77.8883 106.267 78.7382 105.235 79.3253C104.207 79.9077 103.052 80.1989 101.769 80.1989C100.476 80.1989 99.3162 79.9053 98.2887 79.3182C97.2612 78.7311 96.4492 77.8812 95.8526 76.7685C95.256 75.6558 94.9577 74.3087 94.9577 72.7273C94.9577 71.1411 95.256 69.7917 95.8526 68.679C96.4492 67.5663 97.2612 66.7187 98.2887 66.1364C99.3162 65.5492 100.476 65.2557 101.769 65.2557C103.052 65.2557 104.207 65.5492 105.235 66.1364C106.267 66.7187 107.081 67.5663 107.678 68.679C108.279 69.7917 108.58 71.1411 108.58 72.7273ZM105.462 72.7273C105.462 71.6998 105.308 70.8333 105 70.1278C104.697 69.4223 104.269 68.8873 103.715 68.5227C103.161 68.1581 102.512 67.9759 101.769 67.9759C101.025 67.9759 100.377 68.1581 99.8228 68.5227C99.2688 68.8873 98.8379 69.4223 98.5302 70.1278C98.2272 70.8333 98.0756 71.6998 98.0756 72.7273C98.0756 73.7547 98.2272 74.6212 98.5302 75.3267C98.8379 76.0322 99.2688 76.5672 99.8228 76.9318C100.377 77.2964 101.025 77.4787 101.769 77.4787C102.512 77.4787 103.161 77.2964 103.715 76.9318C104.269 76.5672 104.697 76.0322 105 75.3267C105.308 74.6212 105.462 73.7547 105.462 72.7273ZM110.858 80V65.4545H113.933V71.8679H114.125L119.359 65.4545H123.045L117.648 71.9673L123.109 80H119.43L115.446 74.0199L113.933 75.8665V80H110.858ZM123.795 65.4545H127.239L130.556 71.7188H130.698L134.015 65.4545H137.46L132.154 74.858V80H129.1V74.858L123.795 65.4545ZM153.413 70.1562C153.314 69.8106 153.174 69.5052 152.994 69.2401C152.814 68.9702 152.594 68.7429 152.333 68.5582C152.078 68.3688 151.784 68.2244 151.453 68.125C151.126 68.0256 150.764 67.9759 150.366 67.9759C149.623 67.9759 148.969 68.1605 148.406 68.5298C147.847 68.8991 147.412 69.4366 147.099 70.142C146.787 70.8428 146.63 71.6998 146.63 72.7131C146.63 73.7263 146.784 74.5881 147.092 75.2983C147.4 76.0085 147.835 76.5507 148.399 76.9247C148.962 77.294 149.627 77.4787 150.395 77.4787C151.091 77.4787 151.685 77.3556 152.177 77.1094C152.674 76.8584 153.053 76.5057 153.314 76.0511C153.579 75.5966 153.711 75.0592 153.711 74.4389L154.336 74.5312H150.586V72.2159H156.673V74.0483C156.673 75.3267 156.403 76.4252 155.863 77.3438C155.324 78.2576 154.58 78.9631 153.633 79.4602C152.686 79.9527 151.602 80.1989 150.38 80.1989C149.017 80.1989 147.819 79.8982 146.787 79.2969C145.754 78.6908 144.949 77.8314 144.372 76.7188C143.799 75.6013 143.512 74.2756 143.512 72.7415C143.512 71.5625 143.683 70.5114 144.024 69.5881C144.369 68.66 144.852 67.8741 145.473 67.2301C146.093 66.5862 146.815 66.0961 147.639 65.7599C148.463 65.4238 149.355 65.2557 150.316 65.2557C151.14 65.2557 151.907 65.3764 152.618 65.6179C153.328 65.8546 153.958 66.1908 154.507 66.6264C155.061 67.062 155.513 67.5805 155.863 68.1818C156.214 68.7784 156.439 69.4366 156.538 70.1562H153.413ZM158.983 80V65.4545H164.722C165.82 65.4545 166.758 65.651 167.534 66.044C168.315 66.4323 168.91 66.9839 169.317 67.6989C169.729 68.4091 169.935 69.2448 169.935 70.206C169.935 71.1719 169.726 72.0028 169.31 72.6989C168.893 73.3902 168.289 73.9205 167.499 74.2898C166.713 74.6591 165.761 74.8438 164.643 74.8438H160.801V72.3722H164.146C164.733 72.3722 165.221 72.2917 165.609 72.1307C165.998 71.9697 166.286 71.7282 166.476 71.4062C166.67 71.0843 166.767 70.6842 166.767 70.206C166.767 69.723 166.67 69.3158 166.476 68.9844C166.286 68.6529 165.995 68.402 165.602 68.2315C165.214 68.0563 164.724 67.9688 164.132 67.9688H162.058V80H158.983ZM166.838 73.3807L170.453 80H167.058L163.521 73.3807H166.838ZM185.474 72.7273C185.474 74.3134 185.174 75.6629 184.572 76.7756C183.976 77.8883 183.161 78.7382 182.129 79.3253C181.102 79.9077 179.946 80.1989 178.663 80.1989C177.371 80.1989 176.211 79.9053 175.183 79.3182C174.156 78.7311 173.344 77.8812 172.747 76.7685C172.151 75.6558 171.852 74.3087 171.852 72.7273C171.852 71.1411 172.151 69.7917 172.747 68.679C173.344 67.5663 174.156 66.7187 175.183 66.1364C176.211 65.5492 177.371 65.2557 178.663 65.2557C179.946 65.2557 181.102 65.5492 182.129 66.1364C183.161 66.7187 183.976 67.5663 184.572 68.679C185.174 69.7917 185.474 71.1411 185.474 72.7273ZM182.357 72.7273C182.357 71.6998 182.203 70.8333 181.895 70.1278C181.592 69.4223 181.163 68.8873 180.609 68.5227C180.055 68.1581 179.407 67.9759 178.663 67.9759C177.92 67.9759 177.271 68.1581 176.717 68.5227C176.163 68.8873 175.732 69.4223 175.425 70.1278C175.122 70.8333 174.97 71.6998 174.97 72.7273C174.97 73.7547 175.122 74.6212 175.425 75.3267C175.732 76.0322 176.163 76.5672 176.717 76.9318C177.271 77.2964 177.92 77.4787 178.663 77.4787C179.407 77.4787 180.055 77.2964 180.609 76.9318C181.163 76.5672 181.592 76.0322 181.895 75.3267C182.203 74.6212 182.357 73.7547 182.357 72.7273ZM196.737 65.4545H199.812V74.9006C199.812 75.9612 199.559 76.8892 199.052 77.6847C198.55 78.4801 197.847 79.1004 196.943 79.5455C196.038 79.9858 194.985 80.206 193.782 80.206C192.575 80.206 191.519 79.9858 190.615 79.5455C189.71 79.1004 189.007 78.4801 188.505 77.6847C188.003 76.8892 187.752 75.9612 187.752 74.9006V65.4545H190.828V74.6378C190.828 75.1918 190.949 75.6842 191.19 76.1151C191.436 76.5459 191.782 76.8845 192.227 77.1307C192.672 77.3769 193.19 77.5 193.782 77.5C194.379 77.5 194.897 77.3769 195.338 77.1307C195.783 76.8845 196.126 76.5459 196.368 76.1151C196.614 75.6842 196.737 75.1918 196.737 74.6378V65.4545ZM202.342 80V65.4545H208.081C209.184 65.4545 210.124 65.6652 210.901 66.0866C211.677 66.5033 212.269 67.0833 212.676 67.8267C213.088 68.5653 213.294 69.4176 213.294 70.3835C213.294 71.3494 213.086 72.2017 212.669 72.9403C212.252 73.679 211.649 74.2543 210.858 74.6662C210.072 75.0781 209.12 75.2841 208.003 75.2841H204.345V72.8196H207.506C208.098 72.8196 208.585 72.7178 208.969 72.5142C209.357 72.3059 209.646 72.0194 209.835 71.6548C210.029 71.2855 210.126 70.8617 210.126 70.3835C210.126 69.9006 210.029 69.4792 209.835 69.1193C209.646 68.7547 209.357 68.473 208.969 68.2741C208.58 68.0705 208.088 67.9688 207.491 67.9688H205.418V80H202.342Z" fill="#33B5E5"/>
<ellipse cx="27.5" cy="32" rx="16.5" ry="19" fill="#33B5E5"/>
<rect x="11" y="22" width="11" height="57" fill="#33B5E5"/>
<path d="M81 53C81 67.3594 72.2696 79 61.5 79C50.7304 79 42 67.3594 42 53C42 38.6406 50.7304 27 61.5 27C72.2696 27 81 38.6406 81 53Z" fill="#33B5E5"/>
<line x1="54.9062" y1="29.2383" x2="54.9062" y2="75.1591" stroke="white"/>
<path d="M55.105 53.2585L70.48 41.6017V29.9449" stroke="white"/>
<path d="M55.105 53.2584L71.1788 65.3172V74.4527" stroke="white"/>
<path d="M64.2484 59.2331L63.3649 60.5088L65.3376 60.9552L64.2484 59.2331Z" fill="#FFF9F9" stroke="white"/>
<path d="M55.105 53.2584H43.2244" stroke="white"/>
<mask id="path-46-inside-11_17_226" fill="white">
<ellipse cx="70.4799" cy="29.9448" rx="0.69886" ry="0.706474"/>
</mask>
<ellipse cx="70.4799" cy="29.9448" rx="0.69886" ry="0.706474" fill="#FFF9F9"/>
<ellipse cx="70.4799" cy="29.9448" rx="0.69886" ry="0.706474" fill="#FFF9F9"/>
<ellipse cx="70.4799" cy="29.9448" rx="0.69886" ry="0.706474" fill="#FFF9F9"/>
<path d="M71.1788 29.9448H70.1788C70.1788 29.7929 70.3034 29.6512 70.4799 29.6512V30.6512V31.6512C71.4284 31.6512 72.1788 30.877 72.1788 29.9448H71.1788ZM70.4799 30.6512V29.6512C70.6564 29.6512 70.7811 29.7929 70.7811 29.9448H69.7811H68.7811C68.7811 30.877 69.5315 31.6512 70.4799 31.6512V30.6512ZM69.7811 29.9448H70.7811C70.7811 30.0966 70.6564 30.2383 70.4799 30.2383V29.2383V28.2383C69.5315 28.2383 68.7811 29.0125 68.7811 29.9448H69.7811ZM70.4799 29.2383V30.2383C70.3034 30.2383 70.1788 30.0966 70.1788 29.9448H71.1788H72.1788C72.1788 29.0125 71.4284 28.2383 70.4799 28.2383V29.2383Z" fill="white" mask="url(#path-46-inside-11_17_226)"/>
<mask id="path-48-inside-12_17_226" fill="white">
<ellipse cx="43.2244" cy="53.2585" rx="0.69886" ry="0.706474"/>
</mask>
<ellipse cx="43.2244" cy="53.2585" rx="0.69886" ry="0.706474" fill="#FFF9F9"/>
<ellipse cx="43.2244" cy="53.2585" rx="0.69886" ry="0.706474" fill="#FFF9F9"/>
<ellipse cx="43.2244" cy="53.2585" rx="0.69886" ry="0.706474" fill="#FFF9F9"/>
<path d="M43.9233 53.2585H42.9233C42.9233 53.1067 43.0479 52.965 43.2244 52.965V53.965V54.965C44.1729 54.965 44.9233 54.1908 44.9233 53.2585H43.9233ZM43.2244 53.965V52.965C43.4009 52.965 43.5256 53.1067 43.5256 53.2585H42.5256H41.5256C41.5256 54.1908 42.276 54.965 43.2244 54.965V53.965ZM42.5256 53.2585H43.5256C43.5256 53.4104 43.4009 53.5521 43.2244 53.5521V52.5521V51.5521C42.276 51.5521 41.5256 52.3263 41.5256 53.2585H42.5256ZM43.2244 52.5521V53.5521C43.0479 53.5521 42.9233 53.4104 42.9233 53.2585H43.9233H44.9233C44.9233 52.3263 44.1729 51.5521 43.2244 51.5521V52.5521Z" fill="white" mask="url(#path-48-inside-12_17_226)"/>
<mask id="path-50-inside-13_17_226" fill="white">
<ellipse cx="71.1788" cy="74.4527" rx="0.69886" ry="0.706474"/>
</mask>
<ellipse cx="71.1788" cy="74.4527" rx="0.69886" ry="0.706474" fill="#FFF9F9"/>
<ellipse cx="71.1788" cy="74.4527" rx="0.69886" ry="0.706474" fill="#FFF9F9"/>
<ellipse cx="71.1788" cy="74.4527" rx="0.69886" ry="0.706474" fill="#FFF9F9"/>
<path d="M71.8777 74.4527H70.8777C70.8777 74.3008 71.0023 74.1592 71.1788 74.1592V75.1592V76.1592C72.1273 76.1592 72.8777 75.3849 72.8777 74.4527H71.8777ZM71.1788 75.1592V74.1592C71.3553 74.1592 71.4799 74.3008 71.4799 74.4527H70.4799H69.4799C69.4799 75.3849 70.2304 76.1592 71.1788 76.1592V75.1592ZM70.4799 74.4527H71.4799C71.4799 74.6046 71.3553 74.7462 71.1788 74.7462V73.7462V72.7462C70.2304 72.7462 69.4799 73.5205 69.4799 74.4527H70.4799ZM71.1788 73.7462V74.7462C71.0023 74.7462 70.8777 74.6046 70.8777 74.4527H71.8777H72.8777C72.8777 73.5205 72.1273 72.7462 71.1788 72.7462V73.7462Z" fill="white" mask="url(#path-50-inside-13_17_226)"/>
<mask id="path-52-inside-14_17_226" fill="white">
<ellipse cx="54.7556" cy="75.1592" rx="0.69886" ry="0.706474"/>
</mask>
<ellipse cx="54.7556" cy="75.1592" rx="0.69886" ry="0.706474" fill="#FFF9F9"/>
<ellipse cx="54.7556" cy="75.1592" rx="0.69886" ry="0.706474" fill="#FFF9F9"/>
<ellipse cx="54.7556" cy="75.1592" rx="0.69886" ry="0.706474" fill="#FFF9F9"/>
<path d="M55.4544 75.1592H54.4544C54.4544 75.0074 54.5791 74.8657 54.7556 74.8657V75.8657V76.8657C55.704 76.8657 56.4544 76.0914 56.4544 75.1592H55.4544ZM54.7556 75.8657V74.8657C54.9321 74.8657 55.0567 75.0074 55.0567 75.1592H54.0567H53.0567C53.0567 76.0914 53.8071 76.8657 54.7556 76.8657V75.8657ZM54.0567 75.1592H55.0567C55.0567 75.3111 54.9321 75.4528 54.7556 75.4528V74.4528V73.4528C53.8071 73.4528 53.0567 74.227 53.0567 75.1592H54.0567ZM54.7556 74.4528V75.4528C54.5791 75.4528 54.4544 75.3111 54.4544 75.1592H55.4544H56.4544C56.4544 74.227 55.704 73.4528 54.7556 73.4528V74.4528Z" fill="white" mask="url(#path-52-inside-14_17_226)"/>
<mask id="path-54-inside-15_17_226" fill="white">
<ellipse cx="54.7556" cy="29.2383" rx="0.69886" ry="0.706474"/>
</mask>
<ellipse cx="54.7556" cy="29.2383" rx="0.69886" ry="0.706474" fill="#FFF9F9"/>
<ellipse cx="54.7556" cy="29.2383" rx="0.69886" ry="0.706474" fill="#FFF9F9"/>
<ellipse cx="54.7556" cy="29.2383" rx="0.69886" ry="0.706474" fill="#FFF9F9"/>
<path d="M55.4544 29.2383H54.4544C54.4544 29.0865 54.5791 28.9448 54.7556 28.9448V29.9448V30.9448C55.704 30.9448 56.4544 30.1705 56.4544 29.2383H55.4544ZM54.7556 29.9448V28.9448C54.9321 28.9448 55.0567 29.0865 55.0567 29.2383H54.0567H53.0567C53.0567 30.1705 53.8071 30.9448 54.7556 30.9448V29.9448ZM54.0567 29.2383H55.0567C55.0567 29.3902 54.9321 29.5319 54.7556 29.5319V28.5319V27.5319C53.8071 27.5319 53.0567 28.3061 53.0567 29.2383H54.0567ZM54.7556 28.5319V29.5319C54.5791 29.5319 54.4544 29.3902 54.4544 29.2383H55.4544H56.4544C56.4544 28.3061 55.704 27.5319 54.7556 27.5319V28.5319Z" fill="white" mask="url(#path-54-inside-15_17_226)"/>
<ellipse cx="27.5" cy="32" rx="16.5" ry="19" fill="#0080EB"/>
<rect x="11" y="22" width="11" height="57" fill="#0080EB"/>
<path d="M81 53C81 67.3594 72.2696 79 61.5 79C50.7304 79 42 67.3594 42 53C42 38.6406 50.7304 27 61.5 27C72.2696 27 81 38.6406 81 53Z" fill="#0080EB"/>
<line x1="55" y1="30" x2="55" y2="75" stroke="#191616" stroke-width="2"/>
<path d="M55 53L71 42.5V32" stroke="#191616" stroke-width="2"/>
<path d="M55 53L71 64.9483V74" stroke="#191616" stroke-width="2"/>
<path d="M64.4254 59.0007L63.102 60.9114L66.0077 61.5456L64.4254 59.0007Z" fill="#FFF9F9" stroke="#191616" stroke-width="2"/>
<path d="M55 53H43" stroke="#191616" stroke-width="2"/>
<circle cx="55" cy="75" r="1" fill="#FFF9F9"/>
<circle cx="55" cy="75" r="1" fill="#FFF9F9"/>
<circle cx="55" cy="75" r="1" fill="#FFF9F9"/>
<circle cx="55" cy="75" r="1" stroke="#191616" stroke-width="2"/>
<circle cx="44" cy="53" r="1" fill="#FFF9F9"/>
<circle cx="44" cy="53" r="1" fill="#FFF9F9"/>
<circle cx="44" cy="53" r="1" fill="#FFF9F9"/>
<circle cx="44" cy="53" r="1" stroke="#191616" stroke-width="2"/>
<circle cx="71" cy="74" r="1" fill="#FFF9F9"/>
<circle cx="71" cy="74" r="1" fill="#FFF9F9"/>
<circle cx="71" cy="74" r="1" fill="#FFF9F9"/>
<circle cx="71" cy="74" r="1" stroke="#191616" stroke-width="2"/>
<circle cx="71" cy="32" r="1" fill="#FFF9F9"/>
<circle cx="71" cy="32" r="1" fill="#FFF9F9"/>
<circle cx="71" cy="32" r="1" fill="#FFF9F9"/>
<circle cx="71" cy="32" r="1" stroke="#191616" stroke-width="2"/>
<circle cx="55" cy="30" r="1" fill="#FFF9F9"/>
<circle cx="55" cy="30" r="1" fill="#FFF9F9"/>
<circle cx="55" cy="30" r="1" fill="#FFF9F9"/>
<circle cx="55" cy="30" r="1" stroke="#191616" stroke-width="2"/>
<path d="M79.2642 80V65.4545H85.0028C86.1061 65.4545 87.0459 65.6652 87.8224 66.0866C88.599 66.5033 89.1908 67.0833 89.598 67.8267C90.0099 68.5653 90.2159 69.4176 90.2159 70.3835C90.2159 71.3494 90.0076 72.2017 89.5909 72.9403C89.1742 73.679 88.5705 74.2543 87.7798 74.6662C86.9938 75.0781 86.0421 75.2841 84.9247 75.2841H81.267V72.8196H84.4276C85.0194 72.8196 85.5071 72.7178 85.8906 72.5142C86.2789 72.3059 86.5677 72.0194 86.7571 71.6548C86.9512 71.2855 87.0483 70.8617 87.0483 70.3835C87.0483 69.9006 86.9512 69.4792 86.7571 69.1193C86.5677 68.7547 86.2789 68.473 85.8906 68.2741C85.5024 68.0705 85.0099 67.9688 84.4134 67.9688H82.3395V80H79.2642ZM105.58 72.7273C105.58 74.3134 105.279 75.6629 104.678 76.7756C104.081 77.8883 103.267 78.7382 102.235 79.3253C101.207 79.9077 100.052 80.1989 98.7688 80.1989C97.4762 80.1989 96.3162 79.9053 95.2887 79.3182C94.2612 78.7311 93.4492 77.8812 92.8526 76.7685C92.256 75.6558 91.9577 74.3087 91.9577 72.7273C91.9577 71.1411 92.256 69.7917 92.8526 68.679C93.4492 67.5663 94.2612 66.7187 95.2887 66.1364C96.3162 65.5492 97.4762 65.2557 98.7688 65.2557C100.052 65.2557 101.207 65.5492 102.235 66.1364C103.267 66.7187 104.081 67.5663 104.678 68.679C105.279 69.7917 105.58 71.1411 105.58 72.7273ZM102.462 72.7273C102.462 71.6998 102.308 70.8333 102 70.1278C101.697 69.4223 101.269 68.8873 100.715 68.5227C100.161 68.1581 99.5122 67.9759 98.7688 67.9759C98.0254 67.9759 97.3768 68.1581 96.8228 68.5227C96.2688 68.8873 95.8379 69.4223 95.5302 70.1278C95.2272 70.8333 95.0756 71.6998 95.0756 72.7273C95.0756 73.7547 95.2272 74.6212 95.5302 75.3267C95.8379 76.0322 96.2688 76.5672 96.8228 76.9318C97.3768 77.2964 98.0254 77.4787 98.7688 77.4787C99.5122 77.4787 100.161 77.2964 100.715 76.9318C101.269 76.5672 101.697 76.0322 102 75.3267C102.308 74.6212 102.462 73.7547 102.462 72.7273ZM107.858 80V65.4545H110.933V71.8679H111.125L116.359 65.4545H120.045L114.648 71.9673L120.109 80H116.43L112.446 74.0199L110.933 75.8665V80H107.858ZM120.795 65.4545H124.239L127.556 71.7188H127.698L131.015 65.4545H134.46L129.154 74.858V80H126.1V74.858L120.795 65.4545ZM150.413 70.1562C150.314 69.8106 150.174 69.5052 149.994 69.2401C149.814 68.9702 149.594 68.7429 149.333 68.5582C149.078 68.3688 148.784 68.2244 148.453 68.125C148.126 68.0256 147.764 67.9759 147.366 67.9759C146.623 67.9759 145.969 68.1605 145.406 68.5298C144.847 68.8991 144.412 69.4366 144.099 70.142C143.787 70.8428 143.63 71.6998 143.63 72.7131C143.63 73.7263 143.784 74.5881 144.092 75.2983C144.4 76.0085 144.835 76.5507 145.399 76.9247C145.962 77.294 146.627 77.4787 147.395 77.4787C148.091 77.4787 148.685 77.3556 149.177 77.1094C149.674 76.8584 150.053 76.5057 150.314 76.0511C150.579 75.5966 150.711 75.0592 150.711 74.4389L151.336 74.5312H147.586V72.2159H153.673V74.0483C153.673 75.3267 153.403 76.4252 152.863 77.3438C152.324 78.2576 151.58 78.9631 150.633 79.4602C149.686 79.9527 148.602 80.1989 147.38 80.1989C146.017 80.1989 144.819 79.8982 143.787 79.2969C142.754 78.6908 141.949 77.8314 141.372 76.7188C140.799 75.6013 140.512 74.2756 140.512 72.7415C140.512 71.5625 140.683 70.5114 141.024 69.5881C141.369 68.66 141.852 67.8741 142.473 67.2301C143.093 66.5862 143.815 66.0961 144.639 65.7599C145.463 65.4238 146.355 65.2557 147.316 65.2557C148.14 65.2557 148.907 65.3764 149.618 65.6179C150.328 65.8546 150.958 66.1908 151.507 66.6264C152.061 67.062 152.513 67.5805 152.863 68.1818C153.214 68.7784 153.439 69.4366 153.538 70.1562H150.413ZM155.983 80V65.4545H161.722C162.82 65.4545 163.758 65.651 164.534 66.044C165.315 66.4323 165.91 66.9839 166.317 67.6989C166.729 68.4091 166.935 69.2448 166.935 70.206C166.935 71.1719 166.726 72.0028 166.31 72.6989C165.893 73.3902 165.289 73.9205 164.499 74.2898C163.713 74.6591 162.761 74.8438 161.643 74.8438H157.801V72.3722H161.146C161.733 72.3722 162.221 72.2917 162.609 72.1307C162.998 71.9697 163.286 71.7282 163.476 71.4062C163.67 71.0843 163.767 70.6842 163.767 70.206C163.767 69.723 163.67 69.3158 163.476 68.9844C163.286 68.6529 162.995 68.402 162.602 68.2315C162.214 68.0563 161.724 67.9688 161.132 67.9688H159.058V80H155.983ZM163.838 73.3807L167.453 80H164.058L160.521 73.3807H163.838ZM182.474 72.7273C182.474 74.3134 182.174 75.6629 181.572 76.7756C180.976 77.8883 180.161 78.7382 179.129 79.3253C178.102 79.9077 176.946 80.1989 175.663 80.1989C174.371 80.1989 173.211 79.9053 172.183 79.3182C171.156 78.7311 170.344 77.8812 169.747 76.7685C169.151 75.6558 168.852 74.3087 168.852 72.7273C168.852 71.1411 169.151 69.7917 169.747 68.679C170.344 67.5663 171.156 66.7187 172.183 66.1364C173.211 65.5492 174.371 65.2557 175.663 65.2557C176.946 65.2557 178.102 65.5492 179.129 66.1364C180.161 66.7187 180.976 67.5663 181.572 68.679C182.174 69.7917 182.474 71.1411 182.474 72.7273ZM179.357 72.7273C179.357 71.6998 179.203 70.8333 178.895 70.1278C178.592 69.4223 178.163 68.8873 177.609 68.5227C177.055 68.1581 176.407 67.9759 175.663 67.9759C174.92 67.9759 174.271 68.1581 173.717 68.5227C173.163 68.8873 172.732 69.4223 172.425 70.1278C172.122 70.8333 171.97 71.6998 171.97 72.7273C171.97 73.7547 172.122 74.6212 172.425 75.3267C172.732 76.0322 173.163 76.5672 173.717 76.9318C174.271 77.2964 174.92 77.4787 175.663 77.4787C176.407 77.4787 177.055 77.2964 177.609 76.9318C178.163 76.5672 178.592 76.0322 178.895 75.3267C179.203 74.6212 179.357 73.7547 179.357 72.7273ZM193.737 65.4545H196.812V74.9006C196.812 75.9612 196.559 76.8892 196.052 77.6847C195.55 78.4801 194.847 79.1004 193.943 79.5455C193.038 79.9858 191.985 80.206 190.782 80.206C189.575 80.206 188.519 79.9858 187.615 79.5455C186.71 79.1004 186.007 78.4801 185.505 77.6847C185.003 76.8892 184.752 75.9612 184.752 74.9006V65.4545H187.828V74.6378C187.828 75.1918 187.949 75.6842 188.19 76.1151C188.436 76.5459 188.782 76.8845 189.227 77.1307C189.672 77.3769 190.19 77.5 190.782 77.5C191.379 77.5 191.897 77.3769 192.338 77.1307C192.783 76.8845 193.126 76.5459 193.368 76.1151C193.614 75.6842 193.737 75.1918 193.737 74.6378V65.4545ZM199.342 80V65.4545H205.081C206.184 65.4545 207.124 65.6652 207.901 66.0866C208.677 66.5033 209.269 67.0833 209.676 67.8267C210.088 68.5653 210.294 69.4176 210.294 70.3835C210.294 71.3494 210.086 72.2017 209.669 72.9403C209.252 73.679 208.649 74.2543 207.858 74.6662C207.072 75.0781 206.12 75.2841 205.003 75.2841H201.345V72.8196H204.506C205.098 72.8196 205.585 72.7178 205.969 72.5142C206.357 72.3059 206.646 72.0194 206.835 71.6548C207.029 71.2855 207.126 70.8617 207.126 70.3835C207.126 69.9006 207.029 69.4792 206.835 69.1193C206.646 68.7547 206.357 68.473 205.969 68.2741C205.58 68.0705 205.088 67.9688 204.491 67.9688H202.418V80H199.342Z" fill="#0080EB"/>
</svg>
